<svg width="15" height="16" viewBox="0 0 15 16" fill="none" xmlns="http://www.w3.org/2000/svg">
<path d="M9.68158 7.41891C10.5998 6.67225 11.1978 5.46387 11.1978 4.10256C11.1978 1.84041 9.5471 0 7.51809 0C5.48908 0 3.83835 1.84041 3.83835 4.10256C3.83835 5.46387 4.4363 6.67225 5.3546 7.41891C3.07189 8.39281 1.44653 10.8603 1.44653 13.7436C1.44653 14.9878 2.35443 16 3.47039 16H11.5658C12.6817 16 13.5896 14.9878 13.5896 13.7436C13.5896 10.8603 11.9643 8.39281 9.68158 7.41891ZM4.94229 4.10256C4.94229 2.51906 6.09779 1.23078 7.51809 1.23078C8.93839 1.23078 10.0939 2.51906 10.0939 4.10256C10.0939 5.68606 8.93839 6.97437 7.51809 6.97437C6.09779 6.97437 4.94229 5.68606 4.94229 4.10256ZM11.5658 14.7692H3.47039C2.96314 14.7692 2.55047 14.3091 2.55047 13.7436C2.55047 10.6896 4.7789 8.20509 7.51812 8.20509C10.2573 8.20509 12.4858 10.6896 12.4858 13.7436C12.4857 14.3091 12.0731 14.7692 11.5658 14.7692Z" fill="#3E3F50"/>
</svg>
