<svg width="17" height="18" viewBox="0 0 17 18" fill="none" xmlns="http://www.w3.org/2000/svg">
<g clip-path="url(#clip0_67_1712)">
<path d="M3.97754 15.1875C3.97754 16.1179 4.65663 16.875 5.49112 16.875C6.32561 16.875 7.0047 16.1179 7.0047 15.1875C7.0047 14.2571 6.32561 13.5 5.49112 13.5C4.65663 13.5 3.97754 14.2571 3.97754 15.1875ZM5.99564 15.1875C5.99564 15.4974 5.76911 15.75 5.49112 15.75C5.21312 15.75 4.98659 15.4974 4.98659 15.1875C4.98659 14.8776 5.21312 14.625 5.49112 14.625C5.76911 14.625 5.99564 14.8776 5.99564 15.1875Z" fill="#3E3F50"/>
<path d="M13.0589 15.1875C13.0589 14.2571 12.3798 13.5 11.5453 13.5C10.7108 13.5 10.0317 14.2571 10.0317 15.1875C10.0317 16.1179 10.7108 16.875 11.5453 16.875C12.3798 16.875 13.0589 16.1179 13.0589 15.1875ZM11.0408 15.1875C11.0408 14.8776 11.2673 14.625 11.5453 14.625C11.8233 14.625 12.0498 14.8776 12.0498 15.1875C12.0498 15.4974 11.8233 15.75 11.5453 15.75C11.2673 15.75 11.0408 15.4974 11.0408 15.1875Z" fill="#3E3F50"/>
<path d="M2.51447 1.6875C2.57703 2.35181 3.27328 9.72506 3.38074 10.8641C3.46197 11.7253 4.10928 12.375 4.88625 12.375H12.7483C13.4571 12.375 14.0797 11.8136 14.2286 11.0408L15.4404 4.73569C15.5045 4.40156 15.4309 4.05788 15.2381 3.79294C15.0454 3.52744 14.7593 3.375 14.4531 3.375H3.6885L3.47055 1.0665C3.4433 0.779625 3.22686 0.5625 2.96855 0.5625H1.45497C1.17647 0.5625 0.950439 0.8145 0.950439 1.125C0.950439 1.4355 1.17647 1.6875 1.45497 1.6875H2.51447ZM14.4531 4.5L13.2417 10.8051C13.1918 11.0627 12.9844 11.25 12.7478 11.25H4.88625C4.62692 11.25 4.41149 11.0334 4.38425 10.7466L3.79446 4.5H14.4531Z" fill="#3E3F50"/>
</g>
<defs>
<clipPath id="clip0_67_1712">
<rect width="16.1448" height="18" fill="white" transform="translate(0.445801)"/>
</clipPath>
</defs>
</svg>
