<svg width="14" height="14" viewBox="0 0 14 14" fill="none" xmlns="http://www.w3.org/2000/svg">
<g clip-path="url(#clip0_67_1720)">
<path d="M6.70351 12.8137H2.01021C1.72236 12.8137 1.48875 12.5532 1.48875 12.2323V1.76715C1.48875 1.44622 1.72238 1.18577 2.01021 1.18577H6.70351C6.99188 1.18577 7.22497 0.925895 7.22497 0.604387C7.22497 0.282879 6.99188 0.0229492 6.70351 0.0229492H2.01021C1.1477 0.0229492 0.445801 0.805528 0.445801 1.76715V12.2323C0.445801 13.1939 1.1477 13.9764 2.01021 13.9764H6.70351C6.99188 13.9764 7.22497 13.7166 7.22497 13.3951C7.22497 13.0735 6.99188 12.8137 6.70351 12.8137Z" fill="#FD7A55"/>
<path d="M12.8476 6.58593L9.67701 3.09756C9.47259 2.87197 9.14198 2.8749 8.93965 3.10338C8.73731 3.33186 8.7394 3.69988 8.94487 3.92547L11.2107 6.41848H5.13914C4.85077 6.41848 4.61768 6.67836 4.61768 6.99986C4.61768 7.32137 4.85077 7.58127 5.13914 7.58127H11.2107L8.94487 10.0743C8.73942 10.2999 8.73785 10.6679 8.93965 10.8964C9.04185 11.0115 9.17639 11.0696 9.31094 11.0696C9.4434 11.0696 9.57584 11.0138 9.67701 10.9022L12.8476 7.41379C12.9467 7.3045 13.003 7.15564 13.003 6.99984C13.003 6.84409 12.9472 6.69583 12.8476 6.58593Z" fill="#FD7A55"/>
</g>
<defs>
<clipPath id="clip0_67_1720">
<rect width="12.5571" height="14" fill="white" transform="translate(0.445801)"/>
</clipPath>
</defs>
</svg>
