<svg width="15" height="16" viewBox="0 0 15 16" fill="none" xmlns="http://www.w3.org/2000/svg">
<g clip-path="url(#clip0_67_1718)">
<path d="M7.41499 0C3.44929 0 0.239502 3.578 0.239502 8C0.239502 9.4032 0.567751 10.7737 1.19107 11.9824L0.266546 15.1833C0.202057 15.4065 0.255049 15.6511 0.403736 15.8169C0.550999 15.9811 0.769868 16.0424 0.971985 15.9698L3.84301 14.9391C4.92717 15.634 6.15641 16 7.41499 16C11.3807 16 14.5905 12.422 14.5905 8C14.5905 3.57861 11.3812 0 7.41499 0ZM7.41499 14.75C6.27816 14.75 5.17002 14.3964 4.21035 13.7273C4.07228 13.6311 3.90082 13.6051 3.7413 13.6624L1.66877 14.4065L2.33622 12.0958C2.38681 11.9205 2.36545 11.7291 2.27786 11.5729C1.67786 10.5029 1.36067 9.26746 1.36067 8C1.36067 4.27808 4.07666 1.25 7.41499 1.25C10.7533 1.25 13.4693 4.27808 13.4693 8C13.4693 11.7219 10.7533 14.75 7.41499 14.75ZM8.11572 8C8.11572 8.4314 7.80203 8.78125 7.41499 8.78125C7.02794 8.78125 6.71426 8.4314 6.71426 8C6.71426 7.56848 7.02794 7.21875 7.41499 7.21875C7.80203 7.21875 8.11572 7.56848 8.11572 8ZM10.9186 8C10.9186 8.4314 10.605 8.78125 10.2179 8.78125C9.83087 8.78125 9.51718 8.4314 9.51718 8C9.51718 7.56848 9.83087 7.21875 10.2179 7.21875C10.605 7.21875 10.9186 7.56848 10.9186 8ZM5.3128 8C5.3128 8.4314 4.99911 8.78125 4.61206 8.78125C4.22513 8.78125 3.91133 8.4314 3.91133 8C3.91133 7.56848 4.22513 7.21875 4.61206 7.21875C4.99911 7.21875 5.3128 7.56848 5.3128 8Z" fill="#3E3F50"/>
</g>
<defs>
<clipPath id="clip0_67_1718">
<rect width="14.351" height="16" fill="white" transform="translate(0.239502)"/>
</clipPath>
</defs>
</svg>
