<svg width="21" height="23" viewBox="0 0 21 23" fill="none" xmlns="http://www.w3.org/2000/svg">
<path d="M18.7702 0.864121C17.6369 0.306907 16.1434 0 14.5648 0C12.9862 0 11.4927 0.306907 10.3594 0.864121C9.06874 1.49869 8.35795 2.40935 8.35795 3.42832V9.23534C7.75946 9.02533 7.12292 8.91182 6.46304 8.91182C2.97764 8.91182 0.14209 12.0718 0.14209 15.9559C0.14209 19.84 2.97764 23 6.46304 23C8.86086 23 10.951 21.5044 12.022 19.3063C12.8144 19.4927 13.6832 19.5906 14.5648 19.5906C16.1434 19.5906 17.6369 19.2837 18.7702 18.7265C20.0609 18.0919 20.7716 17.1812 20.7716 16.1623V3.42832C20.7716 2.40935 20.0608 1.49869 18.7702 0.864121ZM10.8475 2.0971C11.8304 1.61382 13.1506 1.34766 14.5648 1.34766C15.979 1.34766 17.2992 1.61382 18.282 2.0971C19.0717 2.48536 19.5623 2.99549 19.5623 3.42832C19.5623 3.86114 19.0717 4.37123 18.282 4.75954C17.2991 5.24281 15.979 5.50897 14.5648 5.50897C13.1506 5.50897 11.8304 5.24281 10.8475 4.75954C10.0578 4.37123 9.56726 3.86119 9.56726 3.42832C9.56726 2.99545 10.0578 2.48536 10.8475 2.0971ZM6.463 21.6523C3.64442 21.6523 1.35136 19.0969 1.35136 15.9559C1.35136 12.8149 3.64442 10.2595 6.463 10.2595C9.28154 10.2595 11.5746 12.8149 11.5746 15.9559C11.5746 19.0969 9.28158 21.6523 6.463 21.6523ZM18.282 17.4935C17.2991 17.9767 15.979 18.2429 14.5648 18.2429C13.851 18.2429 13.1496 18.1729 12.5019 18.0388C12.6585 17.476 12.7531 16.8831 12.7774 16.2702C13.3516 16.3604 13.9497 16.4071 14.5648 16.4071C16.1434 16.4071 17.6369 16.1002 18.7702 15.5429C19.0652 15.3979 19.3295 15.2383 19.5623 15.0665V16.1622C19.5623 16.5951 19.0717 17.1052 18.282 17.4935ZM18.282 14.31C17.2992 14.7932 15.979 15.0594 14.5648 15.0594C13.9213 15.0594 13.3006 15.0039 12.7124 14.8961C12.6206 14.2205 12.442 13.5763 12.1903 12.9775C12.9339 13.1385 13.741 13.2236 14.5648 13.2236C16.1434 13.2236 17.6369 12.9167 18.7702 12.3595C19.0652 12.2144 19.3295 12.0548 19.5623 11.883V12.9787C19.5623 13.4116 19.0717 13.9217 18.282 14.31ZM18.282 11.1265C17.2991 11.6098 15.979 11.876 14.5648 11.876C13.3145 11.876 12.121 11.6636 11.1837 11.2771C10.7217 10.6989 10.1758 10.2058 9.56726 9.8218V8.69951C9.8001 8.87139 10.0644 9.03099 10.3594 9.176C11.4927 9.73322 12.9862 10.0401 14.5648 10.0401C16.1434 10.0401 17.6369 9.73322 18.7702 9.176C19.0652 9.03095 19.3295 8.87139 19.5623 8.69951V9.7953C19.5623 10.2281 19.0717 10.7382 18.282 11.1265ZM18.282 7.94298C17.2992 8.42625 15.979 8.69242 14.5648 8.69242C13.1506 8.69242 11.8304 8.42625 10.8475 7.94298C10.0578 7.55472 9.56726 7.04463 9.56726 6.61176V5.51598C9.8001 5.68785 10.0644 5.84746 10.3594 5.99251C11.4927 6.54972 12.9862 6.85659 14.5648 6.85659C16.1434 6.85659 17.6369 6.54972 18.7702 5.99251C19.0652 5.84746 19.3295 5.68785 19.5623 5.51598V6.61176C19.5623 7.04463 19.0717 7.55472 18.282 7.94298Z" fill="#7166F9"/>
</svg>
