<svg width="22" height="22" viewBox="0 0 22 22" fill="none" xmlns="http://www.w3.org/2000/svg">
<path d="M21.8602 10.5723C21.6636 10.3035 16.9808 3.98926 10.9999 3.98926C5.01902 3.98926 0.33593 10.3035 0.139606 10.5721C-0.0465352 10.8271 -0.0465352 11.1731 0.139606 11.4282C0.33593 11.697 5.01902 18.0112 10.9999 18.0112C16.9808 18.0112 21.6636 11.697 21.8602 11.4284C22.0466 11.1733 22.0466 10.8271 21.8602 10.5723ZM10.9999 16.5607C6.59434 16.5607 2.77867 12.3698 1.64914 10.9998C2.7772 9.62849 6.58489 5.4398 10.9999 5.4398C15.4052 5.4398 19.2206 9.62995 20.3506 11.0007C19.2226 12.372 15.4149 16.5607 10.9999 16.5607Z" fill="#6DBFFF"/>
<path d="M10.9999 6.64844C8.60039 6.64844 6.64819 8.60064 6.64819 11.0001C6.64819 13.3996 8.60039 15.3518 10.9999 15.3518C13.3993 15.3518 15.3515 13.3996 15.3515 11.0001C15.3515 8.60064 13.3993 6.64844 10.9999 6.64844ZM10.9999 13.9012C9.40013 13.9012 8.09878 12.5998 8.09878 11.0001C8.09878 9.40042 9.40017 8.09902 10.9999 8.09902C12.5995 8.09902 13.9009 9.40042 13.9009 11.0001C13.9009 12.5998 12.5996 13.9012 10.9999 13.9012Z" fill="#6DBFFF"/>
</svg>
