<svg width="30" height="30" viewBox="0 0 30 30" fill="none" xmlns="http://www.w3.org/2000/svg">
<g clip-path="url(#clip0_22_76)">
<path d="M18 11C18 10.4067 17.8241 9.82664 17.4944 9.33329C17.1648 8.83994 16.6962 8.45542 16.1481 8.22836C15.5999 8.0013 14.9967 7.94189 14.4147 8.05764C13.8328 8.1734 13.2982 8.45912 12.8787 8.87868C12.4591 9.29824 12.1734 9.83279 12.0576 10.4147C11.9419 10.9967 12.0013 11.5999 12.2284 12.1481C12.4554 12.6962 12.8399 13.1648 13.3333 13.4944C13.8266 13.8241 14.4067 14 15 14C15.7954 13.9992 16.558 13.6829 17.1205 13.1204C17.6829 12.558 17.9992 11.7954 18 11ZM13 11C13 10.6044 13.1173 10.2178 13.3371 9.88886C13.5568 9.55996 13.8692 9.30362 14.2346 9.15224C14.6001 9.00087 15.0022 8.96126 15.3902 9.03843C15.7781 9.1156 16.1345 9.30608 16.4142 9.58579C16.6939 9.86549 16.8844 10.2219 16.9616 10.6098C17.0387 10.9978 16.9991 11.3999 16.8478 11.7654C16.6964 12.1308 16.44 12.4432 16.1111 12.6629C15.7822 12.8827 15.3956 13 15 13C14.4696 13 13.9609 12.7893 13.5858 12.4142C13.2107 12.0391 13 11.5304 13 11Z" fill="#3E3F50"/>
<path d="M7.5 24H10.5C10.7652 24 11.0196 23.8946 11.2071 23.7071C11.3946 23.5196 11.5 23.2652 11.5 23V21C11.5 20.7348 11.3946 20.4804 11.2071 20.2929C11.0196 20.1054 10.7652 20 10.5 20H9.5V19.5C9.5 19.3674 9.55268 19.2402 9.64645 19.1464C9.74021 19.0527 9.86739 19 10 19H14.5V20H13.5C13.2348 20 12.9804 20.1054 12.7929 20.2929C12.6054 20.4804 12.5 20.7348 12.5 21V23C12.5 23.2652 12.6054 23.5196 12.7929 23.7071C12.9804 23.8946 13.2348 24 13.5 24H16.5C16.7652 24 17.0196 23.8946 17.2071 23.7071C17.3946 23.5196 17.5 23.2652 17.5 23V21C17.5 20.7348 17.3946 20.4804 17.2071 20.2929C17.0196 20.1054 16.7652 20 16.5 20H15.5V19H20C20.1326 19 20.2598 19.0527 20.3536 19.1464C20.4473 19.2402 20.5 19.3674 20.5 19.5V20H19.5C19.2348 20 18.9804 20.1054 18.7929 20.2929C18.6054 20.4804 18.5 20.7348 18.5 21V23C18.5 23.2652 18.6054 23.5196 18.7929 23.7071C18.9804 23.8946 19.2348 24 19.5 24H22.5C22.7652 24 23.0196 23.8946 23.2071 23.7071C23.3946 23.5196 23.5 23.2652 23.5 23V21C23.5 20.7348 23.3946 20.4804 23.2071 20.2929C23.0196 20.1054 22.7652 20 22.5 20H21.5V19.5C21.5 19.1022 21.342 18.7206 21.0607 18.4393C20.7794 18.158 20.3978 18 20 18H15.5V16.978H15.515C15.6657 16.9642 15.8097 16.9088 15.9307 16.8178C16.0516 16.7268 16.1449 16.604 16.2 16.463L16.4625 15.807C16.774 15.7119 17.0755 15.5865 17.3625 15.4325L18.0125 15.712C18.1509 15.7722 18.3034 15.7928 18.4528 15.7715C18.6022 15.7502 18.7429 15.6879 18.859 15.5915C18.99 15.482 19.1175 15.3645 19.2395 15.2415C19.3615 15.1185 19.479 14.9915 19.5895 14.8615C19.6864 14.7449 19.749 14.6037 19.7703 14.4536C19.7916 14.3035 19.7707 14.1504 19.71 14.0115L19.431 13.3615C19.585 13.0745 19.7104 12.773 19.8055 12.4615L20.4615 12.199C20.6023 12.144 20.725 12.0509 20.8159 11.9301C20.9068 11.8093 20.9622 11.6655 20.976 11.515C20.993 11.345 21 11.173 21 11C21 10.827 20.993 10.655 20.9775 10.485C20.9638 10.3343 20.9084 10.1904 20.8175 10.0694C20.7266 9.94846 20.6039 9.85516 20.463 9.8L19.807 9.5375C19.7119 9.22596 19.5865 8.92451 19.4325 8.6375L19.712 7.9875C19.7721 7.84904 19.7926 7.69665 19.7713 7.54723C19.7501 7.39781 19.6878 7.2572 19.5915 7.141C19.482 7.01 19.3645 6.8825 19.2415 6.7605C19.1185 6.6385 18.9915 6.521 18.8615 6.4105C18.745 6.31342 18.6038 6.25072 18.4536 6.22943C18.3035 6.20815 18.1504 6.22912 18.0115 6.29L17.3615 6.569C17.0745 6.41499 16.773 6.28955 16.4615 6.1945L16.2 5.537C16.1449 5.39625 16.0518 5.27359 15.931 5.18273C15.8102 5.09188 15.6665 5.0364 15.516 5.0225C15.1732 4.991 14.8283 4.991 14.4855 5.0225C14.3347 5.03613 14.1907 5.09149 14.0697 5.18236C13.9486 5.27323 13.8552 5.39604 13.8 5.537L13.5375 6.193C13.226 6.28805 12.9245 6.41349 12.6375 6.5675L11.9875 6.288C11.849 6.22794 11.6966 6.2074 11.5472 6.22867C11.3978 6.24994 11.2572 6.31219 11.141 6.4085C11.01 6.518 10.8825 6.6355 10.7605 6.7585C10.6385 6.8815 10.521 7.0085 10.4105 7.1385C10.3136 7.25507 10.251 7.3963 10.2297 7.54641C10.2084 7.69651 10.2293 7.84958 10.29 7.9885L10.569 8.6385C10.415 8.92551 10.2896 9.22696 10.1945 9.5385L9.5385 9.801C9.39775 9.85609 9.27509 9.94923 9.18423 10.07C9.09338 10.1908 9.0379 10.3345 9.024 10.485C9.007 10.655 9 10.827 9 11C9 11.173 9.007 11.345 9.0225 11.515C9.03622 11.6657 9.09162 11.8096 9.18249 11.9306C9.27335 12.0515 9.39611 12.1448 9.537 12.2L10.193 12.4625C10.2881 12.774 10.4135 13.0755 10.5675 13.3625L10.288 14.0125C10.2279 14.151 10.2074 14.3034 10.2287 14.4528C10.2499 14.6022 10.3122 14.7428 10.4085 14.859C10.518 14.99 10.6355 15.1175 10.7585 15.2395C10.8815 15.3615 11.0085 15.479 11.1385 15.5895C11.255 15.6865 11.3963 15.7492 11.5464 15.7705C11.6965 15.7918 11.8496 15.7708 11.9885 15.71L12.6385 15.431C12.9255 15.585 13.227 15.7104 13.5385 15.8055L13.801 16.4615C13.8561 16.6022 13.9492 16.7249 14.07 16.8158C14.1908 16.9066 14.3345 16.9621 14.485 16.976H14.5V18H10C9.60218 18 9.22064 18.158 8.93934 18.4393C8.65804 18.7206 8.5 19.1022 8.5 19.5V20H7.5C7.23478 20 6.98043 20.1054 6.79289 20.2929C6.60536 20.4804 6.5 20.7348 6.5 21V23C6.5 23.2652 6.60536 23.5196 6.79289 23.7071C6.98043 23.8946 7.23478 24 7.5 24ZM16.5 23H13.5V21H16.5V23ZM22.5 23H19.5V21H22.5V23ZM14.3745 15.2055C14.3451 15.1318 14.2985 15.0661 14.2387 15.014C14.1789 14.9618 14.1075 14.9246 14.0305 14.9055C13.6413 14.8092 13.2689 14.6547 12.926 14.447C12.8579 14.4057 12.781 14.3813 12.7016 14.3757C12.6222 14.3701 12.5426 14.3836 12.4695 14.415L11.692 14.7485C11.6145 14.68 11.538 14.609 11.4645 14.535C11.391 14.461 11.3195 14.385 11.251 14.3075L11.5845 13.53C11.6159 13.4569 11.6294 13.3773 11.6238 13.2979C11.6182 13.2185 11.5938 13.1416 11.5525 13.0735C11.3448 12.7306 11.1903 12.3582 11.094 11.969C11.0749 11.892 11.0377 11.8206 10.9855 11.7608C10.9334 11.701 10.8677 11.6544 10.794 11.625L10.0095 11.311C10.0025 11.208 9.9995 11.104 9.9995 10.9995C9.9995 10.895 10.0025 10.7915 10.0095 10.688L10.794 10.374C10.8677 10.3446 10.9334 10.298 10.9855 10.2382C11.0377 10.1784 11.0749 10.107 11.094 10.03C11.1903 9.64082 11.3448 9.26844 11.5525 8.9255C11.5938 8.85745 11.6182 8.78052 11.6238 8.70113C11.6294 8.62173 11.6159 8.54214 11.5845 8.469L11.25 7.692C11.3185 7.6145 11.3895 7.538 11.4635 7.4645C11.5375 7.391 11.6135 7.3195 11.691 7.251L12.4685 7.5845C12.5416 7.61589 12.6212 7.62936 12.7006 7.62379C12.78 7.61822 12.8569 7.59378 12.925 7.5525C13.2679 7.34484 13.6403 7.19026 14.0295 7.094C14.1065 7.07489 14.1779 7.03771 14.2377 6.98554C14.2975 6.93338 14.3441 6.86772 14.3735 6.794L14.6875 6.0095C14.8949 5.99525 15.1031 5.99525 15.3105 6.0095L15.6245 6.794C15.6539 6.86772 15.7005 6.93338 15.7603 6.98554C15.8201 7.03771 15.8915 7.07489 15.9685 7.094C16.3577 7.19026 16.7301 7.34484 17.073 7.5525C17.1411 7.59378 17.218 7.61822 17.2974 7.62379C17.3768 7.62936 17.4564 7.61589 17.5295 7.5845L18.307 7.251C18.3845 7.3195 18.461 7.3905 18.5345 7.4645C18.608 7.5385 18.6795 7.6145 18.748 7.692L18.4145 8.4695C18.3831 8.54264 18.3696 8.62223 18.3752 8.70162C18.3808 8.78102 18.4052 8.85795 18.4465 8.926C18.6542 9.26894 18.8087 9.64132 18.905 10.0305C18.9241 10.1075 18.9613 10.1789 19.0135 10.2387C19.0656 10.2985 19.1313 10.3451 19.205 10.3745L19.9895 10.6885C19.9965 10.7915 19.9995 10.8955 19.9995 11C19.9995 11.1045 19.9965 11.208 19.9895 11.3115L19.205 11.6255C19.1313 11.6549 19.0656 11.7015 19.0135 11.7613C18.9613 11.8211 18.9241 11.8925 18.905 11.9695C18.8087 12.3587 18.6542 12.7311 18.4465 13.074C18.4052 13.1421 18.3808 13.219 18.3752 13.2984C18.3696 13.3778 18.3831 13.4574 18.4145 13.5305L18.748 14.308C18.6795 14.3855 18.6085 14.462 18.5345 14.5355C18.4605 14.609 18.3845 14.6805 18.307 14.749L17.5295 14.4155C17.4564 14.3841 17.3768 14.3706 17.2974 14.3762C17.218 14.3818 17.1411 14.4062 17.073 14.4475C16.7301 14.6552 16.3577 14.8097 15.9685 14.906C15.8915 14.9251 15.8201 14.9623 15.7603 15.0145C15.7005 15.0666 15.6539 15.1323 15.6245 15.206L15.3105 15.9905C15.1031 16.004 14.8949 16.004 14.6875 15.9905L14.3745 15.2055ZM7.5 21H10.5V23H7.5V21Z" fill="#3E3F50"/>
<path d="M18.6875 4.10949C18.6362 4.15053 18.5935 4.20127 18.5619 4.25881C18.5302 4.31635 18.5102 4.37956 18.5029 4.44484C18.4957 4.51012 18.5014 4.57619 18.5196 4.63927C18.5379 4.70235 18.5685 4.76121 18.6095 4.81249C18.6506 4.86378 18.7013 4.90647 18.7588 4.93815C18.8164 4.96982 18.8796 4.98985 18.9449 4.99709C19.0101 5.00433 19.0762 4.99865 19.1393 4.98036C19.2024 4.96207 19.2612 4.93153 19.3125 4.89049L21.8125 2.89049C21.8711 2.84365 21.9184 2.78423 21.9509 2.71664C21.9834 2.64904 22.0002 2.575 22.0002 2.49999C22.0002 2.42499 21.9834 2.35095 21.9509 2.28335C21.9184 2.21576 21.8711 2.15634 21.8125 2.10949L19.3125 0.109494C19.2089 0.0266135 19.0767 -0.0117302 18.9449 0.00289764C18.813 0.0175255 18.6924 0.0839267 18.6095 0.187494C18.5266 0.291061 18.4883 0.42331 18.5029 0.555148C18.5175 0.686986 18.5839 0.807614 18.6875 0.890494L20.0745 1.99999H4C3.46957 1.99999 2.96086 2.21071 2.58579 2.58578C2.21071 2.96085 2 3.46956 2 3.99999V5.5C2 5.6326 2.05268 5.75978 2.14645 5.85355C2.24022 5.94732 2.36739 6 2.5 6C2.63261 6 2.75979 5.94732 2.85355 5.85355C2.94732 5.75978 3 5.6326 3 5.5V3.99999C3 3.73478 3.10536 3.48042 3.29289 3.29289C3.48043 3.10535 3.73478 2.99999 4 2.99999H20.0745L18.6875 4.10949Z" fill="#3E3F50"/>
<path d="M29.8125 18.6095C29.7612 18.5684 29.7024 18.5379 29.6393 18.5196C29.5762 18.5013 29.5101 18.4956 29.4448 18.5028C29.3796 18.5101 29.3163 18.5301 29.2588 18.5618C29.2013 18.5935 29.1505 18.6362 29.1095 18.6875L28 20.0745V4C28 3.46957 27.7893 2.96086 27.4142 2.58579C27.0391 2.21071 26.5304 2 26 2H24.5C24.3674 2 24.2402 2.05268 24.1464 2.14645C24.0527 2.24021 24 2.36739 24 2.5C24 2.63261 24.0527 2.75978 24.1464 2.85355C24.2402 2.94732 24.3674 3 24.5 3H26C26.2652 3 26.5196 3.10536 26.7071 3.29289C26.8946 3.48043 27 3.73478 27 4V20.0745L25.8905 18.6875C25.8495 18.6362 25.7987 18.5935 25.7412 18.5619C25.6836 18.5302 25.6204 18.5101 25.5552 18.5029C25.4899 18.4957 25.4238 18.5013 25.3607 18.5196C25.2976 18.5379 25.2388 18.5685 25.1875 18.6095C25.1362 18.6505 25.0935 18.7013 25.0618 18.7588C25.0302 18.8164 25.0101 18.8796 25.0029 18.9448C24.9957 19.0101 25.0013 19.0762 25.0196 19.1393C25.0379 19.2024 25.0685 19.2612 25.1095 19.3125L27.1095 21.8125C27.1563 21.8711 27.2158 21.9184 27.2834 21.9509C27.351 21.9834 27.425 22.0002 27.5 22.0002C27.575 22.0002 27.649 21.9834 27.7166 21.9509C27.7842 21.9184 27.8437 21.8711 27.8905 21.8125L29.8905 19.3125C29.9316 19.2612 29.9621 19.2024 29.9804 19.1393C29.9987 19.0762 30.0044 19.0101 29.9972 18.9448C29.9899 18.8796 29.9699 18.8163 29.9382 18.7588C29.9065 18.7013 29.8638 18.6505 29.8125 18.6095Z" fill="#3E3F50"/>
<path d="M28 26V24.5C28 24.3674 27.9473 24.2402 27.8535 24.1464C27.7598 24.0527 27.6326 24 27.5 24C27.3674 24 27.2402 24.0527 27.1464 24.1464C27.0527 24.2402 27 24.3674 27 24.5V26C27 26.2652 26.8946 26.5196 26.7071 26.7071C26.5196 26.8946 26.2652 27 26 27H9.92549L11.3125 25.8905C11.3638 25.8495 11.4065 25.7987 11.4381 25.7412C11.4698 25.6836 11.4898 25.6204 11.4971 25.5552C11.5043 25.4899 11.4986 25.4238 11.4804 25.3607C11.4621 25.2976 11.4315 25.2388 11.3905 25.1875C11.3495 25.1362 11.2987 25.0935 11.2412 25.0619C11.1836 25.0302 11.1204 25.0101 11.0551 25.0029C10.9899 24.9957 10.9238 25.0013 10.8607 25.0196C10.7976 25.0379 10.7388 25.0685 10.6875 25.1095L8.18749 27.1095C8.12891 27.1563 8.08163 27.2158 8.04913 27.2834C8.01663 27.351 7.99976 27.425 7.99976 27.5C7.99976 27.575 8.01663 27.649 8.04913 27.7166C8.08163 27.7842 8.12891 27.8437 8.18749 27.8905L10.6875 29.8905C10.7911 29.9734 10.9233 30.0117 11.0551 29.9971C11.187 29.9825 11.3076 29.9161 11.3905 29.8125C11.4734 29.7089 11.5117 29.5767 11.4971 29.4448C11.4825 29.313 11.4161 29.1924 11.3125 29.1095L9.92549 28H26C26.5304 28 27.0391 27.7893 27.4142 27.4142C27.7893 27.0391 28 26.5304 28 26Z" fill="#3E3F50"/>
<path d="M4.00003 28H5.50003C5.63263 28 5.75981 27.9473 5.85358 27.8536C5.94735 27.7598 6.00003 27.6326 6.00003 27.5C6.00003 27.3674 5.94735 27.2402 5.85358 27.1465C5.75981 27.0527 5.63263 27 5.50003 27H4.00003C3.73481 27 3.48046 26.8946 3.29292 26.7071C3.10538 26.5196 3.00003 26.2652 3.00003 26V9.9255L4.10953 11.3125C4.15056 11.3638 4.2013 11.4065 4.25884 11.4382C4.31638 11.4698 4.37959 11.4899 4.44487 11.4971C4.51015 11.5043 4.57622 11.4987 4.6393 11.4804C4.70238 11.4621 4.76124 11.4315 4.81253 11.3905C4.86381 11.3495 4.9065 11.2987 4.93818 11.2412C4.96985 11.1836 4.98988 11.1204 4.99712 11.0552C5.00436 10.9899 4.99868 10.9238 4.98039 10.8607C4.9621 10.7976 4.93156 10.7388 4.89053 10.6875L2.89053 8.1875C2.84199 8.13157 2.78201 8.08671 2.71464 8.05597C2.64727 8.02523 2.57408 8.00932 2.50003 8.00932C2.42597 8.00932 2.35278 8.02523 2.28541 8.05597C2.21804 8.08671 2.15806 8.13157 2.10953 8.1875L0.109526 10.6875C0.026646 10.7911 -0.0116978 10.9233 0.00293006 11.0552C0.0175579 11.187 0.0839591 11.3076 0.187526 11.3905C0.291093 11.4734 0.423342 11.5117 0.55518 11.4971C0.687018 11.4825 0.807646 11.4161 0.890526 11.3125L2.00003 9.9255V26C2.00003 26.5304 2.21074 27.0391 2.58581 27.4142C2.96089 27.7893 3.46959 28 4.00003 28Z" fill="#3E3F50"/>
</g>
<defs>
<clipPath id="clip0_22_76">
<rect width="30" height="30" fill="white"/>
</clipPath>
</defs>
</svg>
