<svg width="30" height="30" viewBox="0 0 30 30" fill="none" xmlns="http://www.w3.org/2000/svg">
<path d="M11.9999 6.01044V6.5102C11.9999 7.33824 12.6715 8.00955 13.4999 8.00955H16.4999C17.3283 8.00955 17.9999 7.33824 17.9999 6.5102V6.01044C17.9976 5.2306 17.5418 4.52333 16.8325 4.19874C17.7552 3.2049 17.7166 1.65682 16.7456 0.710067C15.7746 -0.236689 14.2254 -0.236689 13.2544 0.710067C12.2834 1.65682 12.2448 3.2049 13.1675 4.19874C12.458 4.52333 12.0023 5.2306 11.9999 6.01044ZM14.9999 1.01263C15.8283 1.01263 16.4999 1.68394 16.4999 2.51198C16.4999 3.34002 15.8284 4.01132 14.9999 4.01132C14.1715 4.01132 13.4999 3.34002 13.4999 2.51198C13.4999 1.68394 14.1715 1.01263 14.9999 1.01263ZM12.9999 6.01044C12.9999 5.45837 13.4476 5.01085 13.9999 5.01085H15.9999C16.5522 5.01085 16.9999 5.45837 16.9999 6.01044V6.5102C16.9999 6.78623 16.776 7.00996 16.4999 7.00996H13.4999C13.2238 7.00996 13 6.78617 13 6.5102L12.9999 6.01044Z" fill="#3E3F50"/>
<path d="M11.9999 28.0009V28.5006C11.9999 29.3287 12.6715 30 13.4999 30H16.4999C17.3283 30 17.9999 29.3287 17.9999 28.5006V28.0009C17.9976 27.2211 17.5418 26.5138 16.8325 26.1892C17.7552 25.1954 17.7166 23.6473 16.7456 22.7005C15.7746 21.7538 14.2254 21.7538 13.2544 22.7005C12.2834 23.6473 12.2448 25.1954 13.1675 26.1892C12.458 26.5138 12.0023 27.2211 11.9999 28.0009ZM14.9999 23.003C15.8283 23.003 16.4999 23.6743 16.4999 24.5024C16.4999 25.3304 15.8284 26.0017 14.9999 26.0017C14.1715 26.0017 13.4999 25.3304 13.4999 24.5024C13.4999 23.6743 14.1715 23.003 14.9999 23.003ZM12.9999 28.0009C12.9999 27.4488 13.4476 27.0013 13.9999 27.0013H15.9999C16.5522 27.0013 16.9999 27.4488 16.9999 28.0009V28.5006C16.9999 28.7767 16.776 29.0004 16.4999 29.0004H13.4999C13.2238 29.0004 13 28.7767 13 28.5006L12.9999 28.0009Z" fill="#3E3F50"/>
<path d="M1.5 18.505H4.49999C5.32839 18.505 5.99999 17.8337 5.99999 17.0056V16.5059C5.99764 15.726 5.54184 15.0188 4.83251 14.6942C5.58995 13.8725 5.7086 12.6476 5.12296 11.696C4.53732 10.7443 3.39023 10.2976 2.31486 10.6027C1.23955 10.9077 0.498105 11.8901 0.499979 13.0074C0.501737 13.6337 0.740155 14.2362 1.16748 14.6942C0.458085 15.0188 0.00234375 15.726 0 16.5059V17.0056C0 17.4033 0.158027 17.7846 0.439335 18.0658C0.720643 18.347 1.10215 18.505 1.5 18.505ZM2.99999 11.5081C3.82839 11.5081 4.49999 12.1794 4.49999 13.0074C4.49999 13.8354 3.82839 14.5068 2.99999 14.5068C2.1716 14.5068 1.5 13.8354 1.5 13.0074C1.5 12.1794 2.17154 11.5081 2.99999 11.5081ZM0.999959 16.5059C0.999959 15.9538 1.44767 15.5063 1.99998 15.5063H3.99995C4.55226 15.5063 4.99997 15.9538 4.99997 16.5059V17.0056C4.99997 17.2817 4.77608 17.5054 4.49999 17.5054H1.5C1.22385 17.5054 1.00002 17.2817 1.00002 17.0056L0.999959 16.5059Z" fill="#3E3F50"/>
<path d="M28.8324 14.6942C29.7551 13.7003 29.7166 12.1523 28.7456 11.2055C27.7746 10.2587 26.2253 10.2587 25.2543 11.2055C24.2833 12.1523 24.2448 13.7003 25.1675 14.6942C24.4581 15.0188 24.0024 15.726 24 16.5059V17.0056C24 17.8337 24.6716 18.505 25.5 18.505H28.5C29.3284 18.505 30 17.8337 30 17.0056V16.5059C29.9976 15.726 29.5418 15.0188 28.8324 14.6942ZM26.9999 11.5081C27.8283 11.5081 28.4999 12.1794 28.4999 13.0074C28.4999 13.8354 27.8283 14.5068 26.9999 14.5068C26.1715 14.5068 25.4999 13.8354 25.4999 13.0074C25.4999 12.1794 26.1715 11.5081 26.9999 11.5081ZM28.9999 17.0056C28.9999 17.2817 28.7761 17.5054 28.4999 17.5054H25.4999C25.2238 17.5054 25 17.2817 25 17.0056V16.5059C25 15.9538 25.4477 15.5063 26 15.5063H28C28.5523 15.5063 29 15.9538 29 16.5059L28.9999 17.0056Z" fill="#3E3F50"/>
<path d="M8.99998 15.0065C8.99998 18.3188 11.6863 21.0039 15 21.0039C18.3137 21.0039 21 18.3188 21 15.0065C21 11.6943 18.3137 9.00913 15 9.00913C11.6877 9.0127 9.00355 11.6957 8.99998 15.0065ZM15 10.0087C15.3635 10.0087 15.84 10.7509 16.157 12.0078H13.843C14.16 10.7509 14.6365 10.0087 15 10.0087ZM16.3559 13.0074C16.4297 13.5042 16.4746 14.0048 16.4904 14.5068H13.5094C13.5253 14.0048 13.5702 13.5042 13.6439 13.0074H16.3559ZM19.9745 14.5068H17.491C17.475 14.0052 17.4331 13.5047 17.3655 13.0074H19.5795C19.7892 13.4833 19.9225 13.9893 19.9745 14.5068ZM15 20.0043C14.6365 20.0043 14.16 19.2622 13.843 18.0052H16.157C15.84 19.2622 15.3634 20.0043 15 20.0043ZM13.6439 17.0056C13.5702 16.5089 13.5253 16.0082 13.5095 15.5063H16.4905C16.4746 16.0082 16.4297 16.5089 16.356 17.0056H13.6439ZM10.0254 15.5063H12.5089C12.5249 16.0079 12.5668 16.5083 12.6344 17.0056H10.4204C10.2107 16.5298 10.0774 16.0237 10.0254 15.5063ZM17.491 15.5063H19.9745C19.9225 16.0237 19.7892 16.5297 19.5795 17.0056H17.3655C17.433 16.5084 17.4749 16.0079 17.491 15.5063ZM12.5089 14.5068H10.0254C10.0774 13.9893 10.2107 13.4833 10.4204 13.0074H12.6344C12.5669 13.5047 12.525 14.0051 12.5089 14.5068ZM11.0089 18.0052H12.8119C12.9376 18.6068 13.1392 19.1901 13.4119 19.7409C12.4543 19.4178 11.6164 18.8127 11.0089 18.0052ZM16.5889 19.7409C16.8611 19.1901 17.0622 18.6068 17.1874 18.0052H18.9904C18.3833 18.8125 17.546 19.4175 16.5889 19.7409ZM18.9904 12.0078H17.1874C17.0618 11.4062 16.8601 10.8229 16.5874 10.2721C17.5452 10.5952 18.3829 11.2003 18.9904 12.0078ZM13.4104 10.2721C13.1384 10.823 12.9375 11.4063 12.8124 12.0078H11.0094C11.6165 11.2006 12.4534 10.5956 13.4104 10.2721Z" fill="#3E3F50"/>
<path d="M5.49995 27.5011H10.4999C10.7761 27.5011 10.9999 27.2773 10.9999 27.0013C10.9999 26.7253 10.776 26.5015 10.4999 26.5015H5.49995C4.3954 26.5015 3.49998 25.6065 3.49998 24.5024V21.7107L4.1465 22.3569C4.34267 22.5463 4.65457 22.5436 4.8474 22.3508C5.04023 22.158 5.04298 21.8463 4.85349 21.6502L3.35349 20.1509C3.15826 19.9558 2.84174 19.9558 2.6465 20.1509L1.1465 21.6502C0.957013 21.8463 0.959708 22.1581 1.1526 22.3508C1.34549 22.5436 1.65732 22.5463 1.8535 22.3569L2.50002 21.7107V24.5024C2.5016 26.1579 3.8438 27.4994 5.49995 27.5011Z" fill="#3E3F50"/>
<path d="M24.4999 2.51198H19.4999C19.2238 2.51198 19 2.73577 19 3.01174C19 3.28771 19.2238 3.5115 19.4999 3.5115H24.4999C25.6045 3.5115 26.4999 4.40654 26.4999 5.51061V7.30286L25.8534 6.65662C25.6572 6.46721 25.3453 6.4699 25.1525 6.66271C24.9596 6.85552 24.9569 7.16722 25.1464 7.3633L26.6464 8.86265C26.8416 9.05774 27.1581 9.05774 27.3534 8.86265L28.8534 7.3633C29.0429 7.16722 29.0402 6.85546 28.8473 6.66271C28.6544 6.4699 28.3425 6.46721 28.1464 6.65662L27.4999 7.30286V5.51067C27.4983 3.85518 26.1561 2.51362 24.4999 2.51198Z" fill="#3E3F50"/>
<path d="M2.49995 5.51067V8.50937C2.49995 8.7854 2.72383 9.00913 2.99993 9.00913C3.27602 9.00913 3.49991 8.7854 3.49991 8.50937V5.51067C3.49991 4.4066 4.39533 3.51156 5.49988 3.51156H9.29288L8.64642 4.15775C8.51646 4.2832 8.46431 4.46904 8.51007 4.6438C8.55583 4.81857 8.69236 4.95498 8.86714 5.00072C9.04199 5.04646 9.22784 4.99434 9.35341 4.86443L10.8534 3.36508C11.0486 3.16993 11.0486 2.85355 10.8534 2.6584L9.35341 1.15905C9.15724 0.969642 8.84534 0.972336 8.65251 1.16514C8.45962 1.35795 8.45693 1.66965 8.64642 1.86574L9.29294 2.51198H5.49994C3.84379 2.51362 2.50159 3.85518 2.49995 5.51067Z" fill="#3E3F50"/>
<path d="M21.8534 25.1486C21.6582 24.9535 21.3417 24.9535 21.1465 25.1486L19.6465 26.648C19.4513 26.8431 19.4513 27.1595 19.6465 27.3546L21.1465 28.854C21.3426 29.0434 21.6545 29.0407 21.8474 28.8479C22.0402 28.6551 22.0429 28.3434 21.8534 28.1473L21.2069 27.5011H24.4999C26.1561 27.4994 27.4983 26.1578 27.4999 24.5024V20.5041C27.4999 20.2281 27.2761 20.0044 27 20.0044C26.7239 20.0044 26.5 20.2282 26.5 20.5041V24.5024C26.5 25.6065 25.6046 26.5015 24.5 26.5015H21.207L21.8535 25.8553C22.0486 25.6601 22.0486 25.3438 21.8534 25.1486Z" fill="#3E3F50"/>
</svg>
