<svg width="182" height="32" viewBox="0 0 182 32" fill="none" xmlns="http://www.w3.org/2000/svg">
<path d="M29.0897 15.4887V15.188L26.3293 12.8421H25.9957C25.2373 13.6842 24.0847 14.2857 22.7803 14.2857C20.748 14.2857 19.1403 12.7519 19.1403 10.6165C19.1403 8.51128 20.748 6.94737 22.7803 6.94737C24.0847 6.94737 25.2677 7.57895 25.9957 8.39098H26.3293L29.0897 6.04511V5.71429C27.6337 3.96992 25.389 2.82707 22.8107 2.82707C18.109 2.82707 14.5297 6.13534 14.5297 10.5865C14.5297 10.7669 14.56 10.9173 14.5903 11.0977C16.5317 12.391 18.2303 13.4436 19.6863 14.406C21.8097 15.7293 23.5083 16.9624 24.9037 18.0752C26.663 17.6541 28.0583 16.7218 29.0897 15.4887ZM16.2283 15.3985C17.3203 16.7519 18.8977 17.7143 20.7177 18.1053C19.474 17.4135 18.291 16.7218 17.1687 16C16.835 15.8196 16.562 15.609 16.2283 15.3985Z" fill="#FC0000"/>
<path d="M44.9843 17.3835L44.2867 14.4361L44.044 14.2857C43.8923 14.3459 43.8013 14.4361 43.4373 14.4361C42.9217 14.4361 42.588 13.8947 42.315 13.4436C41.86 12.7519 41.496 12.391 41.1623 12.2105C42.8307 11.4887 43.953 10.1053 43.953 8.1203C43.953 5.05263 41.86 3.12782 37.9167 3.12782H31.0917V18.0752H35.6113V12.8421H36.036C37.037 12.8421 38.3413 15.0075 38.9177 15.9699C40.1613 17.9248 41.132 18.3459 42.8913 18.3459C43.7103 18.3459 44.408 18.0451 44.8023 17.6842L44.9843 17.3835ZM39.3727 8.39098C39.3727 9.38346 38.6447 9.86466 37.7953 9.86466H35.7023V6.82707H37.7953C38.6447 6.82707 39.3727 7.36842 39.3727 8.39098Z" fill="#FC0000"/>
<path d="M62.517 10.6165C62.517 6.16541 58.9377 2.85714 54.2057 2.85714C49.4737 2.85714 45.8943 6.16541 45.8943 10.6165C45.8943 15.0677 49.4737 18.3759 54.2057 18.3759C58.9377 18.3759 62.517 15.0376 62.517 10.6165ZM57.876 10.6165C57.876 12.7519 56.238 14.2857 54.1753 14.2857C52.143 14.2857 50.4747 12.782 50.4747 10.6165C50.4747 8.4812 52.1127 6.94737 54.1753 6.94737C56.238 6.97745 57.876 8.4812 57.876 10.6165Z" fill="#FC0000"/>
<path d="M85.2063 3.14986H80.8687L78.1993 11.4205L75.348 3.14986H72.618L69.797 11.3905L67.1277 3.14986H62.79L62.5777 3.48069L68.1287 18.0972H70.8587L73.983 9.94686L77.1377 18.0972H79.8677L85.4187 3.48069L85.2063 3.14986Z" fill="#FC0000"/>
<path d="M102.011 10.6085C102.011 6.15738 99.008 3.14986 94.1243 3.14986H87.178V18.0972H94.1243C99.008 18.0972 102.011 15.1198 102.011 10.6085ZM97.4003 10.6085C97.4003 13.0446 95.9443 14.398 93.9727 14.398H91.7583V6.81904H93.9727C95.9443 6.81904 97.4003 8.17242 97.4003 10.6085Z" fill="#FC0000"/>
<path d="M126.035 6.81904H130.555V3.14986H116.965V6.81904H121.485V18.0972H126.035V6.81904Z" fill="#FC0000"/>
<path d="M145.054 8.14235C145.054 5.07468 142.961 3.14986 139.018 3.14986H132.223V18.0972H136.773V12.8641H137.835L140.656 18.0972H145.175L145.388 17.7664L142.354 12.2326C143.962 11.4506 145.054 10.0972 145.054 8.14235ZM140.443 8.38295C140.443 9.37543 139.715 9.85663 138.866 9.85663H136.773V6.81904H138.866C139.715 6.81904 140.443 7.39046 140.443 8.38295Z" fill="#FC0000"/>
<path d="M147.814 18.0972H152.334V3.14986H147.814V18.0972Z" fill="#FC0000"/>
<path d="M163.83 9.82656L168.957 3.48069L168.775 3.14986H163.921L159.735 8.47317V3.14986H155.216V18.0972H159.735V13.4957L160.554 12.5333L164.407 18.0972H169.139L169.351 17.7363L163.83 9.82656Z" fill="#FC0000"/>
<path d="M170.595 3.14986V18.0972H182V14.4281H175.114V12.3529H180.301V8.89423H175.114V6.81904H181.939V3.14986H170.595Z" fill="#FC0000"/>
<path d="M109.685 18.2857C112.992 18.2857 115.904 16.6917 115.904 13.5639C115.904 10.1955 112.992 9.32331 110.444 8.57143C109.443 8.27068 108.411 7.93985 108.411 7.18797C108.411 6.64662 108.988 6.34587 109.867 6.34587C111.354 6.34587 112.628 7.2782 113.265 7.84963H113.598L115.722 5.32331V4.99248C114.599 3.72933 112.324 2.76692 109.776 2.76692C106.258 2.76692 103.801 4.66166 103.801 7.3985C103.801 10.3459 106.5 11.6391 108.775 12.2707C110.262 12.6917 111.263 12.7519 111.263 13.5639C111.263 14.1353 110.565 14.4962 109.443 14.4962C108.047 14.4962 106.349 13.594 105.53 12.782H105.196L103.103 15.3985V15.7293C104.438 17.203 106.864 18.2857 109.685 18.2857Z" fill="#FC0000"/>
<path d="M31.5163 32C30.4243 29.5038 28.21 26.3158 19.565 21.7444C15.5913 19.5489 8.76634 16.1805 2.639 9.74436C3.185 12.0601 6.03633 17.1729 18.2607 23.5188C21.658 25.3835 27.391 27.0977 31.5163 32Z" fill="#FC0000"/>
<path d="M30.9703 27.7293C29.939 24.782 28.0583 21.0226 19.11 15.3985C14.7723 12.5714 8.372 9.02256 0 0C0.606667 2.43609 3.24567 8.78196 16.6227 16.9925C21.021 19.9699 26.6933 21.7744 30.9703 27.7293Z" fill="#FC0000"/>
<path d="M29.0897 15.4887V15.188L26.3293 12.8421H25.9957C25.2373 13.6842 24.0847 14.2857 22.7803 14.2857C20.748 14.2857 19.1403 12.7519 19.1403 10.6165C19.1403 8.51128 20.748 6.94737 22.7803 6.94737C24.0847 6.94737 25.2677 7.57895 25.9957 8.39098H26.3293L29.0897 6.04511V5.71429C27.6337 3.96992 25.389 2.82707 22.8107 2.82707C18.109 2.82707 14.5297 6.13534 14.5297 10.5865C14.5297 10.7669 14.56 10.9173 14.5903 11.0977C16.5317 12.391 18.2303 13.4436 19.6863 14.406C21.8097 15.7293 23.5083 16.9624 24.9037 18.0752C26.663 17.6541 28.0583 16.7218 29.0897 15.4887ZM16.2283 15.3985C17.3203 16.7519 18.8977 17.7143 20.7177 18.1053C19.474 17.4135 18.291 16.7218 17.1687 16C16.835 15.8196 16.562 15.609 16.2283 15.3985Z" fill="#BCBCC9"/>
<path d="M44.9843 17.3835L44.2867 14.4361L44.044 14.2857C43.8923 14.3459 43.8013 14.4361 43.4373 14.4361C42.9217 14.4361 42.588 13.8947 42.315 13.4436C41.86 12.7519 41.496 12.391 41.1623 12.2105C42.8307 11.4887 43.953 10.1053 43.953 8.1203C43.953 5.05263 41.86 3.12782 37.9167 3.12782H31.0917V18.0752H35.6113V12.8421H36.036C37.037 12.8421 38.3413 15.0075 38.9177 15.9699C40.1613 17.9248 41.132 18.3459 42.8913 18.3459C43.7103 18.3459 44.408 18.0451 44.8023 17.6842L44.9843 17.3835ZM39.3727 8.39098C39.3727 9.38346 38.6447 9.86466 37.7953 9.86466H35.7023V6.82707H37.7953C38.6447 6.82707 39.3727 7.36842 39.3727 8.39098Z" fill="#BCBCC9"/>
<path d="M62.517 10.6165C62.517 6.16541 58.9377 2.85714 54.2057 2.85714C49.4737 2.85714 45.8943 6.16541 45.8943 10.6165C45.8943 15.0677 49.4737 18.3759 54.2057 18.3759C58.9377 18.3759 62.517 15.0376 62.517 10.6165ZM57.876 10.6165C57.876 12.7519 56.238 14.2857 54.1753 14.2857C52.143 14.2857 50.4747 12.782 50.4747 10.6165C50.4747 8.4812 52.1127 6.94737 54.1753 6.94737C56.238 6.97745 57.876 8.4812 57.876 10.6165Z" fill="#BCBCC9"/>
<path d="M85.2063 3.14986H80.8687L78.1993 11.4205L75.348 3.14986H72.618L69.797 11.3905L67.1277 3.14986H62.79L62.5777 3.48069L68.1287 18.0972H70.8587L73.983 9.94686L77.1377 18.0972H79.8677L85.4187 3.48069L85.2063 3.14986Z" fill="#BCBCC9"/>
<path d="M102.011 10.6085C102.011 6.15738 99.008 3.14986 94.1243 3.14986H87.178V18.0972H94.1243C99.008 18.0972 102.011 15.1198 102.011 10.6085ZM97.4003 10.6085C97.4003 13.0446 95.9443 14.398 93.9727 14.398H91.7583V6.81904H93.9727C95.9443 6.81904 97.4003 8.17242 97.4003 10.6085Z" fill="#BCBCC9"/>
<path d="M126.035 6.81904H130.555V3.14986H116.965V6.81904H121.485V18.0972H126.035V6.81904Z" fill="#BCBCC9"/>
<path d="M145.054 8.14235C145.054 5.07468 142.961 3.14986 139.018 3.14986H132.223V18.0972H136.773V12.8641H137.835L140.656 18.0972H145.175L145.388 17.7664L142.354 12.2326C143.962 11.4506 145.054 10.0972 145.054 8.14235ZM140.443 8.38295C140.443 9.37543 139.715 9.85663 138.866 9.85663H136.773V6.81904H138.866C139.715 6.81904 140.443 7.39046 140.443 8.38295Z" fill="#BCBCC9"/>
<path d="M147.814 18.0972H152.334V3.14986H147.814V18.0972Z" fill="#BCBCC9"/>
<path d="M163.83 9.82656L168.957 3.48069L168.775 3.14986H163.921L159.735 8.47317V3.14986H155.216V18.0972H159.735V13.4957L160.554 12.5333L164.407 18.0972H169.139L169.351 17.7363L163.83 9.82656Z" fill="#BCBCC9"/>
<path d="M170.595 3.14986V18.0972H182V14.4281H175.114V12.3529H180.301V8.89423H175.114V6.81904H181.939V3.14986H170.595Z" fill="#BCBCC9"/>
<path d="M109.685 18.2857C112.992 18.2857 115.904 16.6917 115.904 13.5639C115.904 10.1955 112.992 9.32331 110.444 8.57143C109.443 8.27068 108.411 7.93985 108.411 7.18797C108.411 6.64662 108.988 6.34587 109.867 6.34587C111.354 6.34587 112.628 7.2782 113.265 7.84963H113.598L115.722 5.32331V4.99248C114.599 3.72933 112.324 2.76692 109.776 2.76692C106.258 2.76692 103.801 4.66166 103.801 7.3985C103.801 10.3459 106.5 11.6391 108.775 12.2707C110.262 12.6917 111.263 12.7519 111.263 13.5639C111.263 14.1353 110.565 14.4962 109.443 14.4962C108.047 14.4962 106.349 13.594 105.53 12.782H105.196L103.103 15.3985V15.7293C104.438 17.203 106.864 18.2857 109.685 18.2857Z" fill="#BCBCC9"/>
<path d="M31.5163 32C30.4243 29.5038 28.21 26.3158 19.565 21.7444C15.5913 19.5489 8.76634 16.1805 2.639 9.74436C3.185 12.0601 6.03633 17.1729 18.2607 23.5188C21.658 25.3835 27.391 27.0977 31.5163 32Z" fill="#BCBCC9"/>
<path d="M30.9703 27.7293C29.939 24.782 28.0583 21.0226 19.11 15.3985C14.7723 12.5714 8.372 9.02256 0 0C0.606667 2.43609 3.24567 8.78196 16.6227 16.9925C21.021 19.9699 26.6933 21.7744 30.9703 27.7293Z" fill="#BCBCC9"/>
</svg>
