<svg width="175" height="37" viewBox="0 0 175 37" fill="none" xmlns="http://www.w3.org/2000/svg">
<g clip-path="url(#clip0_25_143)">
<path d="M72.7784 7.40006V29.6001H68.8907V12.1792H68.8389L61.8928 29.6001H59.301L52.1994 12.1792H52.1475V29.6001H48.5708V7.40006H54.1691L60.5969 23.8445H60.7005L67.4911 7.40006H72.7784ZM75.9923 9.09589C75.9923 8.47923 76.1996 7.96534 76.6662 7.55423C77.1327 7.14312 77.6511 6.93756 78.2731 6.93756C78.947 6.93756 79.5172 7.14312 79.9319 7.55423C80.3466 7.96534 80.6058 8.47923 80.6058 9.09589C80.6058 9.71256 80.3984 10.2264 79.9319 10.6376C79.4653 11.0487 78.947 11.2542 78.2731 11.2542C77.5992 11.2542 77.0809 11.0487 76.6662 10.6376C76.2515 10.1751 75.9923 9.66117 75.9923 9.09589ZM80.1911 13.6695V29.6001H76.407V13.6695H80.1911ZM91.6469 26.8764C92.2171 26.8764 92.8392 26.7737 93.513 26.4653C94.1869 26.2084 94.809 25.8487 95.3792 25.4376V28.932C94.7571 29.2917 94.0832 29.5487 93.3057 29.7028C92.5281 29.857 91.6988 29.9598 90.7657 29.9598C88.3812 29.9598 86.4633 29.2403 85.0119 27.7501C83.5086 26.2598 82.7829 24.3584 82.7829 22.0973C82.7829 19.5278 83.5604 17.4209 85.0637 15.7764C86.567 14.132 88.6922 13.3098 91.4914 13.3098C92.2171 13.3098 92.9428 13.4126 93.6167 13.5667C94.3424 13.7209 94.9126 13.9778 95.3273 14.1834V17.7806C94.7571 17.3695 94.1351 17.0098 93.5649 16.8042C92.9428 16.5987 92.3208 16.4445 91.6988 16.4445C90.1955 16.4445 89.0033 16.907 88.0702 17.8834C87.1371 18.8598 86.7225 20.1445 86.7225 21.7889C86.7225 23.382 87.189 24.6667 88.0702 25.5403C88.9514 26.4139 90.1437 26.8764 91.6469 26.8764ZM106.109 13.4126C106.42 13.4126 106.68 13.4126 106.939 13.4639C107.198 13.5153 107.405 13.5667 107.561 13.6181V17.4209C107.353 17.2667 107.094 17.1126 106.68 17.0098C106.265 16.907 105.85 16.8042 105.28 16.8042C104.347 16.8042 103.569 17.2153 102.947 17.9862C102.325 18.757 101.962 19.9389 101.962 21.5834V29.6001H98.1783V13.6695H101.962V16.1876H102.014C102.377 15.3139 102.895 14.6459 103.569 14.132C104.295 13.6695 105.124 13.4126 106.109 13.4126ZM107.768 21.8917C107.768 19.2709 108.546 17.1639 109.997 15.6223C111.5 14.0806 113.574 13.3098 116.217 13.3098C118.706 13.3098 120.675 14.0292 122.075 15.5195C123.475 17.0098 124.2 19.0139 124.2 21.532C124.2 24.1014 123.423 26.157 121.971 27.6987C120.468 29.2403 118.446 30.0112 115.855 30.0112C113.366 30.0112 111.397 29.2917 109.945 27.8528C108.494 26.3626 107.768 24.3584 107.768 21.8917ZM111.708 21.7376C111.708 23.382 112.071 24.6667 112.848 25.5403C113.626 26.4139 114.714 26.8764 116.114 26.8764C117.462 26.8764 118.55 26.4653 119.276 25.5403C120.001 24.6667 120.364 23.382 120.364 21.6348C120.364 19.9389 120.001 18.6542 119.276 17.7292C118.55 16.8556 117.462 16.3931 116.166 16.3931C114.766 16.3931 113.729 16.8556 112.952 17.7806C112.07 18.757 111.708 20.0417 111.708 21.7376ZM129.85 17.8834C129.85 18.3973 130.006 18.8598 130.369 19.1681C130.732 19.4764 131.457 19.8362 132.65 20.2987C134.153 20.9153 135.241 21.5834 135.812 22.3028C136.434 23.0737 136.745 23.9473 136.745 25.0264C136.745 26.5167 136.174 27.6987 134.982 28.6237C133.842 29.5487 132.235 29.9598 130.265 29.9598C129.591 29.9598 128.866 29.857 128.036 29.7028C127.207 29.5487 126.533 29.3431 125.963 29.0862V25.3862C126.637 25.8487 127.414 26.2598 128.192 26.5167C128.969 26.7737 129.695 26.9278 130.369 26.9278C131.198 26.9278 131.872 26.8251 132.235 26.5681C132.65 26.3112 132.857 25.9514 132.857 25.3862C132.857 24.8723 132.65 24.4612 132.235 24.0501C131.82 23.6903 130.991 23.2792 129.85 22.8167C128.451 22.2514 127.466 21.5834 126.896 20.8639C126.326 20.1445 126.015 19.2195 126.015 18.0889C126.015 16.6501 126.585 15.4681 127.725 14.5431C128.866 13.6181 130.369 13.1556 132.183 13.1556C132.753 13.1556 133.375 13.207 134.049 13.3612C134.723 13.5153 135.345 13.6695 135.812 13.8237V17.4723C135.293 17.1639 134.723 16.8556 134.049 16.5987C133.375 16.3417 132.701 16.2389 132.079 16.2389C131.354 16.2389 130.783 16.3931 130.421 16.6501C130.058 17.0098 129.85 17.3695 129.85 17.8834ZM138.352 21.8917C138.352 19.2709 139.129 17.1639 140.581 15.6223C142.084 14.0806 144.157 13.3098 146.801 13.3098C149.289 13.3098 151.259 14.0292 152.658 15.5195C154.058 17.0098 154.784 19.0139 154.784 21.532C154.784 24.1014 154.006 26.157 152.555 27.6987C151.052 29.2403 149.03 30.0112 146.438 30.0112C143.95 30.0112 141.98 29.2917 140.529 27.8528C139.129 26.3626 138.352 24.3584 138.352 21.8917ZM142.291 21.7376C142.291 23.382 142.654 24.6667 143.432 25.5403C144.209 26.4139 145.298 26.8764 146.697 26.8764C148.045 26.8764 149.134 26.4653 149.859 25.5403C150.585 24.6667 150.948 23.382 150.948 21.6348C150.948 19.9389 150.585 18.6542 149.859 17.7292C149.134 16.8556 148.045 16.3931 146.749 16.3931C145.35 16.3931 144.313 16.8556 143.535 17.7806C142.706 18.757 142.291 20.0417 142.291 21.7376ZM167.38 16.7528H161.73V29.6001H157.894V16.7528H155.198V13.6695H157.894V11.4598C157.894 9.81534 158.464 8.42784 159.553 7.34867C160.641 6.2695 162.041 5.75562 163.751 5.75562C164.218 5.75562 164.633 5.807 164.996 5.807C165.358 5.807 165.669 5.90978 165.929 6.01256V9.25006C165.825 9.19867 165.566 9.09589 165.255 8.99312C164.944 8.89034 164.581 8.83895 164.166 8.83895C163.389 8.83895 162.767 9.09589 162.352 9.55839C161.937 10.0209 161.73 10.7917 161.73 11.7167V13.6181H167.38V10.0209L171.164 8.89034V13.6181H175V16.7014H171.164V24.1528C171.164 25.1292 171.371 25.7973 171.682 26.2084C172.045 26.6195 172.616 26.8251 173.393 26.8251C173.6 26.8251 173.86 26.7737 174.171 26.6709C174.482 26.5681 174.741 26.4653 174.948 26.3112V29.3945C174.689 29.5487 174.326 29.6514 173.756 29.7542C173.186 29.857 172.667 29.9084 172.097 29.9084C170.49 29.9084 169.298 29.4973 168.52 28.6751C167.743 27.8528 167.328 26.5681 167.328 24.8723L167.38 16.7528Z" fill="#737373"/>
<path d="M17.7281 0H0V17.575H17.7281V0Z" fill="#F25022"/>
<path d="M37.3222 0H19.5941V17.575H37.3222V0Z" fill="#7FBA00"/>
<path d="M17.7281 19.425H0V37H17.7281V19.425Z" fill="#00A4EF"/>
<path d="M37.3222 19.425H19.5941V37H37.3222V19.425Z" fill="#FFB900"/>
</g>
<path d="M72.7785 7.40002V29.6H68.8907V12.1792H68.8389L61.8928 29.6H59.301L52.1994 12.1792H52.1475V29.6H48.5708V7.40002H54.1692L60.5969 23.8445H60.7006L67.4911 7.40002H72.7785ZM75.9923 9.09586C75.9923 8.47919 76.1997 7.9653 76.6662 7.55419C77.1327 7.14308 77.6511 6.93752 78.2731 6.93752C78.947 6.93752 79.5172 7.14308 79.9319 7.55419C80.3466 7.9653 80.6058 8.47919 80.6058 9.09586C80.6058 9.71252 80.3984 10.2264 79.9319 10.6375C79.4654 11.0486 78.947 11.2542 78.2731 11.2542C77.5993 11.2542 77.0809 11.0486 76.6662 10.6375C76.2515 10.175 75.9923 9.66114 75.9923 9.09586ZM80.1911 13.6695V29.6H76.407V13.6695H80.1911ZM91.6469 26.8764C92.2171 26.8764 92.8392 26.7736 93.513 26.4653C94.1869 26.2084 94.809 25.8486 95.3792 25.4375V28.932C94.7571 29.2917 94.0833 29.5486 93.3057 29.7028C92.5282 29.857 91.6988 29.9597 90.7657 29.9597C88.3812 29.9597 86.4633 29.2403 85.0119 27.75C83.5086 26.2597 82.7829 24.3584 82.7829 22.0972C82.7829 19.5278 83.5604 17.4209 85.0637 15.7764C86.567 14.132 88.6923 13.3097 91.4914 13.3097C92.2171 13.3097 92.9429 13.4125 93.6167 13.5667C94.3424 13.7209 94.9126 13.9778 95.3273 14.1834V17.7806C94.7571 17.3695 94.1351 17.0097 93.5649 16.8042C92.9428 16.5986 92.3208 16.4445 91.6988 16.4445C90.1955 16.4445 89.0033 16.907 88.0702 17.8834C87.1372 18.8597 86.7225 20.1445 86.7225 21.7889C86.7225 23.382 87.189 24.6667 88.0702 25.5403C88.9514 26.4139 90.1437 26.8764 91.6469 26.8764ZM106.109 13.4125C106.42 13.4125 106.68 13.4125 106.939 13.4639C107.198 13.5153 107.405 13.5667 107.561 13.6181V17.4209C107.353 17.2667 107.094 17.1125 106.68 17.0097C106.265 16.907 105.85 16.8042 105.28 16.8042C104.347 16.8042 103.569 17.2153 102.947 17.9861C102.325 18.757 101.962 19.9389 101.962 21.5834V29.6H98.1783V13.6695H101.962V16.1875H102.014C102.377 15.3139 102.895 14.6459 103.569 14.132C104.295 13.6695 105.124 13.4125 106.109 13.4125ZM107.768 21.8917C107.768 19.2709 108.546 17.1639 109.997 15.6222C111.5 14.0806 113.574 13.3097 116.217 13.3097C118.706 13.3097 120.675 14.0292 122.075 15.5195C123.475 17.0097 124.2 19.0139 124.2 21.532C124.2 24.1014 123.423 26.157 121.971 27.6986C120.468 29.2403 118.446 30.0111 115.855 30.0111C113.366 30.0111 111.397 29.2917 109.945 27.8528C108.494 26.3625 107.768 24.3584 107.768 21.8917ZM111.708 21.7375C111.708 23.382 112.071 24.6667 112.848 25.5403C113.626 26.4139 114.714 26.8764 116.114 26.8764C117.462 26.8764 118.55 26.4653 119.276 25.5403C120.001 24.6667 120.364 23.382 120.364 21.6347C120.364 19.9389 120.001 18.6542 119.276 17.7292C118.55 16.8556 117.462 16.3931 116.166 16.3931C114.766 16.3931 113.729 16.8556 112.952 17.7806C112.071 18.757 111.708 20.0417 111.708 21.7375ZM129.85 17.8834C129.85 18.3972 130.006 18.8597 130.369 19.1681C130.732 19.4764 131.457 19.8361 132.65 20.2986C134.153 20.9153 135.241 21.5834 135.812 22.3028C136.434 23.0736 136.745 23.9472 136.745 25.0264C136.745 26.5167 136.174 27.6986 134.982 28.6236C133.842 29.5486 132.235 29.9597 130.265 29.9597C129.591 29.9597 128.866 29.857 128.036 29.7028C127.207 29.5486 126.533 29.3431 125.963 29.0861V25.3861C126.637 25.8486 127.414 26.2597 128.192 26.5167C128.969 26.7736 129.695 26.9278 130.369 26.9278C131.198 26.9278 131.872 26.825 132.235 26.5681C132.65 26.3111 132.857 25.9514 132.857 25.3861C132.857 24.8722 132.65 24.4611 132.235 24.05C131.82 23.6903 130.991 23.2792 129.85 22.8167C128.451 22.2514 127.466 21.5834 126.896 20.8639C126.326 20.1445 126.015 19.2195 126.015 18.0889C126.015 16.65 126.585 15.4681 127.725 14.5431C128.866 13.6181 130.369 13.1556 132.183 13.1556C132.753 13.1556 133.375 13.207 134.049 13.3611C134.723 13.5153 135.345 13.6695 135.812 13.8236V17.4722C135.293 17.1639 134.723 16.8556 134.049 16.5986C133.375 16.3417 132.701 16.2389 132.079 16.2389C131.354 16.2389 130.783 16.3931 130.421 16.65C130.058 17.0097 129.85 17.3695 129.85 17.8834ZM138.352 21.8917C138.352 19.2709 139.129 17.1639 140.581 15.6222C142.084 14.0806 144.157 13.3097 146.801 13.3097C149.289 13.3097 151.259 14.0292 152.658 15.5195C154.058 17.0097 154.784 19.0139 154.784 21.532C154.784 24.1014 154.006 26.157 152.555 27.6986C151.052 29.2403 149.03 30.0111 146.438 30.0111C143.95 30.0111 141.98 29.2917 140.529 27.8528C139.129 26.3625 138.352 24.3584 138.352 21.8917ZM142.291 21.7375C142.291 23.382 142.654 24.6667 143.432 25.5403C144.209 26.4139 145.298 26.8764 146.697 26.8764C148.045 26.8764 149.134 26.4653 149.859 25.5403C150.585 24.6667 150.948 23.382 150.948 21.6347C150.948 19.9389 150.585 18.6542 149.859 17.7292C149.134 16.8556 148.045 16.3931 146.749 16.3931C145.35 16.3931 144.313 16.8556 143.535 17.7806C142.706 18.757 142.291 20.0417 142.291 21.7375ZM167.38 16.7528H161.73V29.6H157.894V16.7528H155.198V13.6695H157.894V11.4597C157.894 9.8153 158.464 8.4278 159.553 7.34863C160.641 6.26947 162.041 5.75558 163.751 5.75558C164.218 5.75558 164.633 5.80697 164.996 5.80697C165.358 5.80697 165.669 5.90975 165.929 6.01252V9.25002C165.825 9.19864 165.566 9.09586 165.255 8.99308C164.944 8.8903 164.581 8.83891 164.166 8.83891C163.389 8.83891 162.767 9.09586 162.352 9.55836C161.937 10.0209 161.73 10.7917 161.73 11.7167V13.6181H167.38V10.0209L171.164 8.8903V13.6181H175V16.7014H171.164V24.1528C171.164 25.1292 171.371 25.7972 171.682 26.2084C172.045 26.6195 172.616 26.825 173.393 26.825C173.6 26.825 173.86 26.7736 174.171 26.6709C174.482 26.5681 174.741 26.4653 174.948 26.3111V29.3945C174.689 29.5486 174.326 29.6514 173.756 29.7542C173.186 29.857 172.667 29.9084 172.097 29.9084C170.49 29.9084 169.298 29.4972 168.52 28.675C167.743 27.8528 167.328 26.5681 167.328 24.8722L167.38 16.7528Z" fill="#BCBCC9"/>
<path d="M17.7281 0H0V17.575H17.7281V0Z" fill="#BCBCC9"/>
<path d="M37.3222 0H19.5942V17.575H37.3222V0Z" fill="#BCBCC9"/>
<path d="M17.7281 19.425H0V37H17.7281V19.425Z" fill="#BCBCC9"/>
<path d="M37.3222 19.425H19.5942V37H37.3222V19.425Z" fill="#BCBCC9"/>
<defs>
<clipPath id="clip0_25_143">
<rect width="175" height="37" fill="white"/>
</clipPath>
</defs>
</svg>
