<svg width="30" height="30" viewBox="0 0 30 30" fill="none" xmlns="http://www.w3.org/2000/svg">
<g clip-path="url(#clip0_63_906)">
<path d="M18 11C18 10.4067 17.8241 9.82664 17.4944 9.33329C17.1648 8.83994 16.6962 8.45543 16.1481 8.22836C15.5999 8.0013 14.9967 7.94189 14.4147 8.05765C13.8328 8.1734 13.2982 8.45912 12.8787 8.87868C12.4591 9.29824 12.1734 9.83279 12.0576 10.4147C11.9419 10.9967 12.0013 11.5999 12.2284 12.1481C12.4554 12.6962 12.8399 13.1648 13.3333 13.4944C13.8266 13.8241 14.4067 14 15 14C15.7954 13.9992 16.558 13.6829 17.1205 13.1204C17.6829 12.558 17.9992 11.7954 18 11ZM13 11C13 10.6044 13.1173 10.2178 13.3371 9.88886C13.5568 9.55996 13.8692 9.30362 14.2346 9.15224C14.6001 9.00087 15.0022 8.96126 15.3902 9.03843C15.7781 9.1156 16.1345 9.30608 16.4142 9.58579C16.6939 9.86549 16.8844 10.2219 16.9616 10.6098C17.0387 10.9978 16.9991 11.3999 16.8478 11.7654C16.6964 12.1308 16.44 12.4432 16.1111 12.6629C15.7822 12.8827 15.3956 13 15 13C14.4696 13 13.9609 12.7893 13.5858 12.4142C13.2107 12.0391 13 11.5304 13 11Z" fill="white"/>
<path d="M7.5 24H10.5C10.7652 24 11.0196 23.8947 11.2071 23.7071C11.3946 23.5196 11.5 23.2652 11.5 23V21C11.5 20.7348 11.3946 20.4805 11.2071 20.2929C11.0196 20.1054 10.7652 20 10.5 20H9.5V19.5C9.5 19.3674 9.55268 19.2402 9.64645 19.1465C9.74021 19.0527 9.86739 19 10 19H14.5V20H13.5C13.2348 20 12.9804 20.1054 12.7929 20.2929C12.6054 20.4805 12.5 20.7348 12.5 21V23C12.5 23.2652 12.6054 23.5196 12.7929 23.7071C12.9804 23.8947 13.2348 24 13.5 24H16.5C16.7652 24 17.0196 23.8947 17.2071 23.7071C17.3946 23.5196 17.5 23.2652 17.5 23V21C17.5 20.7348 17.3946 20.4805 17.2071 20.2929C17.0196 20.1054 16.7652 20 16.5 20H15.5V19H20C20.1326 19 20.2598 19.0527 20.3536 19.1465C20.4473 19.2402 20.5 19.3674 20.5 19.5V20H19.5C19.2348 20 18.9804 20.1054 18.7929 20.2929C18.6054 20.4805 18.5 20.7348 18.5 21V23C18.5 23.2652 18.6054 23.5196 18.7929 23.7071C18.9804 23.8947 19.2348 24 19.5 24H22.5C22.7652 24 23.0196 23.8947 23.2071 23.7071C23.3946 23.5196 23.5 23.2652 23.5 23V21C23.5 20.7348 23.3946 20.4805 23.2071 20.2929C23.0196 20.1054 22.7652 20 22.5 20H21.5V19.5C21.5 19.1022 21.342 18.7207 21.0607 18.4394C20.7794 18.1581 20.3978 18 20 18H15.5V16.978H15.515C15.6657 16.9643 15.8097 16.9088 15.9307 16.8178C16.0516 16.7269 16.1449 16.604 16.2 16.463L16.4625 15.807C16.774 15.712 17.0755 15.5865 17.3625 15.4325L18.0125 15.712C18.1509 15.7722 18.3034 15.7928 18.4528 15.7715C18.6022 15.7503 18.7429 15.6879 18.859 15.5915C18.99 15.482 19.1175 15.3645 19.2395 15.2415C19.3615 15.1185 19.479 14.9915 19.5895 14.8615C19.6864 14.745 19.749 14.6037 19.7703 14.4536C19.7916 14.3035 19.7707 14.1504 19.71 14.0115L19.431 13.3615C19.585 13.0745 19.7104 12.7731 19.8055 12.4615L20.4615 12.199C20.6023 12.144 20.725 12.0509 20.8159 11.9301C20.9068 11.8093 20.9622 11.6656 20.976 11.515C20.993 11.345 21 11.173 21 11C21 10.827 20.993 10.655 20.9775 10.485C20.9638 10.3343 20.9084 10.1905 20.8175 10.0695C20.7266 9.94849 20.6039 9.85519 20.463 9.80003L19.807 9.53753C19.7119 9.22598 19.5865 8.92454 19.4325 8.63753L19.712 7.98753C19.7721 7.84907 19.7926 7.69667 19.7713 7.54725C19.7501 7.39783 19.6878 7.25723 19.5915 7.14103C19.482 7.01003 19.3645 6.88253 19.2415 6.76053C19.1185 6.63853 18.9915 6.52103 18.8615 6.41053C18.745 6.31344 18.6038 6.25074 18.4536 6.22946C18.3035 6.20817 18.1504 6.22915 18.0115 6.29003L17.3615 6.56903C17.0745 6.41502 16.773 6.28958 16.4615 6.19453L16.2 5.53703C16.1449 5.39628 16.0518 5.27362 15.931 5.18276C15.8102 5.0919 15.6665 5.03642 15.516 5.02253C15.1732 4.99103 14.8283 4.99103 14.4855 5.02253C14.3347 5.03616 14.1907 5.09151 14.0697 5.18239C13.9486 5.27326 13.8552 5.39606 13.8 5.53703L13.5375 6.19303C13.226 6.28808 12.9245 6.41352 12.6375 6.56753L11.9875 6.28803C11.849 6.22796 11.6966 6.20743 11.5472 6.2287C11.3978 6.24997 11.2572 6.31221 11.141 6.40853C11.01 6.51803 10.8825 6.63553 10.7605 6.75853C10.6385 6.88153 10.521 7.00853 10.4105 7.13853C10.3136 7.2551 10.251 7.39633 10.2297 7.54644C10.2084 7.69654 10.2293 7.84961 10.29 7.98853L10.569 8.63853C10.415 8.92554 10.2896 9.22698 10.1945 9.53853L9.5385 9.80103C9.39775 9.85611 9.27509 9.94926 9.18423 10.0701C9.09338 10.1908 9.0379 10.3345 9.024 10.485C9.007 10.655 9 10.827 9 11C9 11.173 9.007 11.345 9.0225 11.515C9.03622 11.6657 9.09162 11.8096 9.18249 11.9306C9.27335 12.0516 9.39611 12.1449 9.537 12.2L10.193 12.4625C10.2881 12.7741 10.4135 13.0755 10.5675 13.3625L10.288 14.0125C10.2279 14.151 10.2074 14.3034 10.2287 14.4528C10.2499 14.6022 10.3122 14.7428 10.4085 14.859C10.518 14.99 10.6355 15.1175 10.7585 15.2395C10.8815 15.3615 11.0085 15.479 11.1385 15.5895C11.255 15.6866 11.3963 15.7492 11.5464 15.7705C11.6965 15.7918 11.8496 15.7708 11.9885 15.71L12.6385 15.431C12.9255 15.585 13.227 15.7105 13.5385 15.8055L13.801 16.4615C13.8561 16.6023 13.9492 16.7249 14.07 16.8158C14.1908 16.9067 14.3345 16.9621 14.485 16.976H14.5V18H10C9.60218 18 9.22064 18.1581 8.93934 18.4394C8.65804 18.7207 8.5 19.1022 8.5 19.5V20H7.5C7.23478 20 6.98043 20.1054 6.79289 20.2929C6.60536 20.4805 6.5 20.7348 6.5 21V23C6.5 23.2652 6.60536 23.5196 6.79289 23.7071C6.98043 23.8947 7.23478 24 7.5 24ZM16.5 23H13.5V21H16.5V23ZM22.5 23H19.5V21H22.5V23ZM14.3745 15.2055C14.3451 15.1318 14.2985 15.0661 14.2387 15.014C14.1789 14.9618 14.1075 14.9246 14.0305 14.9055C13.6413 14.8093 13.2689 14.6547 12.926 14.447C12.8579 14.4057 12.781 14.3813 12.7016 14.3757C12.6222 14.3702 12.5426 14.3836 12.4695 14.415L11.692 14.7485C11.6145 14.68 11.538 14.609 11.4645 14.535C11.391 14.461 11.3195 14.385 11.251 14.3075L11.5845 13.53C11.6159 13.4569 11.6294 13.3773 11.6238 13.2979C11.6182 13.2185 11.5938 13.1416 11.5525 13.0735C11.3448 12.7306 11.1903 12.3582 11.094 11.969C11.0749 11.892 11.0377 11.8206 10.9855 11.7608C10.9334 11.701 10.8677 11.6544 10.794 11.625L10.0095 11.311C10.0025 11.208 9.9995 11.104 9.9995 10.9995C9.9995 10.895 10.0025 10.7915 10.0095 10.688L10.794 10.374C10.8677 10.3446 10.9334 10.2981 10.9855 10.2383C11.0377 10.1784 11.0749 10.1071 11.094 10.03C11.1903 9.64084 11.3448 9.26846 11.5525 8.92553C11.5938 8.85747 11.6182 8.78055 11.6238 8.70115C11.6294 8.62175 11.6159 8.54217 11.5845 8.46903L11.25 7.69203C11.3185 7.61453 11.3895 7.53803 11.4635 7.46453C11.5375 7.39103 11.6135 7.31953 11.691 7.25103L12.4685 7.58453C12.5416 7.61591 12.6212 7.62938 12.7006 7.62382C12.78 7.61825 12.8569 7.59381 12.925 7.55253C13.2679 7.34487 13.6403 7.19029 14.0295 7.09403C14.1065 7.07491 14.1779 7.03774 14.2377 6.98557C14.2975 6.9334 14.3441 6.86775 14.3735 6.79403L14.6875 6.00953C14.8949 5.99528 15.1031 5.99528 15.3105 6.00953L15.6245 6.79403C15.6539 6.86775 15.7005 6.9334 15.7603 6.98557C15.8201 7.03774 15.8915 7.07491 15.9685 7.09403C16.3577 7.19029 16.7301 7.34487 17.073 7.55253C17.1411 7.59381 17.218 7.61825 17.2974 7.62382C17.3768 7.62938 17.4564 7.61591 17.5295 7.58453L18.307 7.25103C18.3845 7.31953 18.461 7.39053 18.5345 7.46453C18.608 7.53853 18.6795 7.61453 18.748 7.69203L18.4145 8.46953C18.3831 8.54267 18.3696 8.62225 18.3752 8.70165C18.3808 8.78105 18.4052 8.85797 18.4465 8.92603C18.6542 9.26896 18.8087 9.64134 18.905 10.0305C18.9241 10.1076 18.9613 10.1789 19.0135 10.2388C19.0656 10.2986 19.1313 10.3451 19.205 10.3745L19.9895 10.6885C19.9965 10.7915 19.9995 10.8955 19.9995 11C19.9995 11.1045 19.9965 11.208 19.9895 11.3115L19.205 11.6255C19.1313 11.6549 19.0656 11.7015 19.0135 11.7613C18.9613 11.8211 18.9241 11.8925 18.905 11.9695C18.8087 12.3587 18.6542 12.7311 18.4465 13.074C18.4052 13.1421 18.3808 13.219 18.3752 13.2984C18.3696 13.3778 18.3831 13.4574 18.4145 13.5305L18.748 14.308C18.6795 14.3855 18.6085 14.462 18.5345 14.5355C18.4605 14.609 18.3845 14.6805 18.307 14.749L17.5295 14.4155C17.4564 14.3841 17.3768 14.3707 17.2974 14.3762C17.218 14.3818 17.1411 14.4062 17.073 14.4475C16.7301 14.6552 16.3577 14.8098 15.9685 14.906C15.8915 14.9251 15.8201 14.9623 15.7603 15.0145C15.7005 15.0666 15.6539 15.1323 15.6245 15.206L15.3105 15.9905C15.1031 16.004 14.8949 16.004 14.6875 15.9905L14.3745 15.2055ZM7.5 21H10.5V23H7.5V21Z" fill="white"/>
<path d="M18.6875 4.10947C18.6362 4.1505 18.5935 4.20124 18.5619 4.25878C18.5302 4.31632 18.5102 4.37953 18.5029 4.44481C18.4957 4.51009 18.5014 4.57616 18.5196 4.63924C18.5379 4.70232 18.5685 4.76119 18.6095 4.81247C18.6506 4.86375 18.7013 4.90644 18.7588 4.93812C18.8164 4.96979 18.8796 4.98982 18.9449 4.99706C19.0101 5.00431 19.0762 4.99862 19.1393 4.98033C19.2024 4.96204 19.2612 4.9315 19.3125 4.89047L21.8125 2.89047C21.8711 2.84362 21.9184 2.7842 21.9509 2.71661C21.9834 2.64901 22.0002 2.57497 22.0002 2.49997C22.0002 2.42496 21.9834 2.35092 21.9509 2.28332C21.9184 2.21573 21.8711 2.15631 21.8125 2.10947L19.3125 0.109465C19.2089 0.0265849 19.0767 -0.0117588 18.9449 0.00286903C18.813 0.0174969 18.6924 0.0838981 18.6095 0.187465C18.5266 0.291032 18.4883 0.423281 18.5029 0.55512C18.5175 0.686958 18.5839 0.807585 18.6875 0.890465L20.0745 1.99997H4C3.46957 1.99997 2.96086 2.21068 2.58579 2.58575C2.21071 2.96082 2 3.46953 2 3.99997V5.49997C2 5.63257 2.05268 5.75975 2.14645 5.85352C2.24022 5.94729 2.36739 5.99997 2.5 5.99997C2.63261 5.99997 2.75979 5.94729 2.85355 5.85352C2.94732 5.75975 3 5.63257 3 5.49997V3.99997C3 3.73475 3.10536 3.4804 3.29289 3.29286C3.48043 3.10532 3.73478 2.99997 4 2.99997H20.0745L18.6875 4.10947Z" fill="white"/>
<path d="M29.8125 18.6095C29.7612 18.5684 29.7024 18.5379 29.6393 18.5196C29.5762 18.5013 29.5101 18.4956 29.4448 18.5028C29.3796 18.5101 29.3163 18.5301 29.2588 18.5618C29.2013 18.5935 29.1505 18.6362 29.1095 18.6875L28 20.0745V4C28 3.46957 27.7893 2.96086 27.4142 2.58579C27.0391 2.21071 26.5304 2 26 2H24.5C24.3674 2 24.2402 2.05268 24.1464 2.14645C24.0527 2.24021 24 2.36739 24 2.5C24 2.63261 24.0527 2.75979 24.1464 2.85355C24.2402 2.94732 24.3674 3 24.5 3H26C26.2652 3 26.5196 3.10536 26.7071 3.29289C26.8946 3.48043 27 3.73478 27 4V20.0745L25.8905 18.6875C25.8495 18.6362 25.7987 18.5935 25.7412 18.5619C25.6836 18.5302 25.6204 18.5101 25.5552 18.5029C25.4899 18.4957 25.4238 18.5013 25.3607 18.5196C25.2976 18.5379 25.2388 18.5685 25.1875 18.6095C25.1362 18.6505 25.0935 18.7013 25.0618 18.7588C25.0302 18.8164 25.0101 18.8796 25.0029 18.9448C24.9957 19.0101 25.0013 19.0762 25.0196 19.1393C25.0379 19.2024 25.0685 19.2612 25.1095 19.3125L27.1095 21.8125C27.1563 21.8711 27.2158 21.9184 27.2834 21.9509C27.351 21.9834 27.425 22.0002 27.5 22.0002C27.575 22.0002 27.649 21.9834 27.7166 21.9509C27.7842 21.9184 27.8437 21.8711 27.8905 21.8125L29.8905 19.3125C29.9316 19.2612 29.9621 19.2024 29.9804 19.1393C29.9987 19.0762 30.0044 19.0101 29.9972 18.9448C29.9899 18.8796 29.9699 18.8163 29.9382 18.7588C29.9065 18.7013 29.8638 18.6505 29.8125 18.6095Z" fill="white"/>
<path d="M28.0002 26V24.5C28.0002 24.3674 27.9475 24.2402 27.8538 24.1464C27.76 24.0527 27.6328 24 27.5002 24C27.3676 24 27.2404 24.0527 27.1467 24.1464C27.0529 24.2402 27.0002 24.3674 27.0002 24.5V26C27.0002 26.2652 26.8949 26.5196 26.7073 26.7071C26.5198 26.8946 26.2654 27 26.0002 27H9.92573L11.3127 25.8905C11.364 25.8495 11.4067 25.7987 11.4384 25.7412C11.4701 25.6836 11.4901 25.6204 11.4973 25.5552C11.5046 25.4899 11.4989 25.4238 11.4806 25.3607C11.4623 25.2976 11.4318 25.2388 11.3907 25.1875C11.3497 25.1362 11.299 25.0935 11.2414 25.0618C11.1839 25.0302 11.1207 25.0101 11.0554 25.0029C10.9901 24.9957 10.924 25.0013 10.861 25.0196C10.7979 25.0379 10.739 25.0685 10.6877 25.1095L8.18773 27.1095C8.12916 27.1563 8.08187 27.2158 8.04937 27.2834C8.01687 27.351 8 27.425 8 27.5C8 27.575 8.01687 27.649 8.04937 27.7166C8.08187 27.7842 8.12916 27.8437 8.18773 27.8905L10.6877 29.8905C10.7913 29.9734 10.9236 30.0117 11.0554 29.9971C11.1872 29.9825 11.3079 29.9161 11.3907 29.8125C11.4736 29.7089 11.512 29.5767 11.4973 29.4448C11.4827 29.313 11.4163 29.1924 11.3127 29.1095L9.92573 28H26.0002C26.5307 28 27.0394 27.7893 27.4144 27.4142C27.7895 27.0391 28.0002 26.5304 28.0002 26Z" fill="white"/>
<path d="M4.00015 28H5.50015C5.63276 28 5.75993 27.9473 5.8537 27.8536C5.94747 27.7598 6.00015 27.6326 6.00015 27.5C6.00015 27.3674 5.94747 27.2402 5.8537 27.1465C5.75993 27.0527 5.63276 27 5.50015 27H4.00015C3.73493 27 3.48058 26.8947 3.29304 26.7071C3.1055 26.5196 3.00015 26.2652 3.00015 26V9.92552L4.10965 11.3125C4.15069 11.3638 4.20142 11.4065 4.25896 11.4382C4.3165 11.4698 4.37971 11.4899 4.44499 11.4971C4.51027 11.5044 4.57634 11.4987 4.63942 11.4804C4.7025 11.4621 4.76137 11.4316 4.81265 11.3905C4.86393 11.3495 4.90663 11.2987 4.9383 11.2412C4.96997 11.1837 4.99 11.1205 4.99724 11.0552C5.00449 10.9899 4.9988 10.9238 4.98051 10.8607C4.96222 10.7977 4.93169 10.7388 4.89065 10.6875L2.89065 8.18752C2.84212 8.13158 2.78214 8.08673 2.71476 8.05599C2.64739 8.02525 2.5742 8.00934 2.50015 8.00934C2.42609 8.00934 2.3529 8.02525 2.28553 8.05599C2.21816 8.08673 2.15818 8.13158 2.10965 8.18752L0.109648 10.6875C0.026768 10.7911 -0.0115757 10.9233 0.00305213 11.0552C0.01768 11.187 0.0840811 11.3076 0.187648 11.3905C0.291215 11.4734 0.423464 11.5117 0.555302 11.4971C0.687141 11.4825 0.807768 11.4161 0.890648 11.3125L2.00015 9.92552V26C2.00015 26.5305 2.21086 27.0392 2.58593 27.4142C2.96101 27.7893 3.46972 28 4.00015 28Z" fill="white"/>
</g>
<defs>
<clipPath id="clip0_63_906">
<rect width="30" height="30" fill="white"/>
</clipPath>
</defs>
</svg>
