<svg width="34" height="34" viewBox="0 0 34 34" fill="none" xmlns="http://www.w3.org/2000/svg">
<path d="M26.5625 11.6875H25.5C25.5 12.1102 25.3321 12.5156 25.0332 12.8145C24.7343 13.1133 24.3289 13.2812 23.9062 13.2812V14.3438C24.6105 14.3429 25.2856 14.0628 25.7836 13.5648C26.2815 13.0669 26.5617 12.3917 26.5625 11.6875Z" fill="white"/>
<path d="M22.8438 13.2812H21.7812V14.3438H22.8438V13.2812Z" fill="white"/>
<path d="M15.4062 3.1875C14.4203 3.18862 13.4751 3.58078 12.7779 4.27794C12.0808 4.9751 11.6886 5.92032 11.6875 6.90625H12.75C12.7508 6.20203 13.031 5.52689 13.5289 5.02893C14.0269 4.53097 14.702 4.25084 15.4062 4.25V3.1875Z" fill="white"/>
<path d="M30.2758 25.6594C30.2795 25.6062 30.2811 25.5531 30.2811 25.5C30.2803 24.7958 30.0001 24.1206 29.5022 23.6227C29.0042 23.1247 28.3291 22.8446 27.6249 22.8438C27.4161 22.8437 27.2081 22.8688 27.0054 22.9187C26.7472 22.5258 26.4166 22.1858 26.0311 21.9167V19.6562C26.0311 19.5154 25.9751 19.3802 25.8755 19.2806C25.7759 19.181 25.6408 19.125 25.4999 19.125H18.4959C18.4165 18.9028 18.2888 18.701 18.1219 18.5342C17.9551 18.3673 17.7533 18.2396 17.5311 18.1602V16.4688H23.9061C25.0812 16.4682 26.215 16.0349 27.0909 15.2516C27.9669 14.4683 28.5237 13.3899 28.6551 12.2221C28.7865 11.0544 28.4833 9.87916 27.8033 8.92078C27.1233 7.9624 26.1142 7.288 24.9686 7.02631C24.9686 6.98594 24.9686 6.94609 24.9686 6.90625C24.9675 5.92032 24.5753 4.9751 23.8782 4.27794C23.181 3.58078 22.2358 3.18862 21.2499 3.1875C20.8465 3.18716 20.4459 3.2534 20.0641 3.38353C19.3263 2.40627 18.2999 1.68564 17.1302 1.32351C15.9604 0.961383 14.7064 0.976071 13.5455 1.3655C12.3845 1.75493 11.3753 2.4994 10.6606 3.49368C9.94582 4.48795 9.56164 5.68173 9.56236 6.90625V6.93547C8.34721 7.07042 7.22994 7.66575 6.44019 8.59908C5.65045 9.5324 5.24826 10.7328 5.31628 11.9535C5.38431 13.1742 5.91739 14.3225 6.80594 15.1623C7.69449 16.0021 8.87099 16.4696 10.0936 16.4688H16.4686V18.1602C16.2464 18.2396 16.0446 18.3673 15.8778 18.5342C15.7109 18.701 15.5832 18.9028 15.5039 19.125H8.49986C8.35896 19.125 8.22384 19.181 8.12421 19.2806C8.02458 19.3802 7.96861 19.5154 7.96861 19.6562V21.4094C7.41381 21.2412 6.8273 21.2055 6.2562 21.3051C5.6851 21.4048 5.14534 21.6371 4.68032 21.9832C4.2153 22.3294 3.83798 22.7799 3.57868 23.2984C3.31939 23.8169 3.18536 24.389 3.18736 24.9688C3.187 25.255 3.22016 25.5402 3.28617 25.8187C2.50755 26.1637 1.87092 26.7654 1.48268 27.5234C1.09443 28.2814 0.978098 29.1496 1.15312 29.983C1.32814 30.8165 1.78391 31.5646 2.44425 32.1023C3.1046 32.6401 3.92951 32.9349 4.78111 32.9375H12.2186C13.1089 32.9328 13.9679 32.6089 14.6396 32.0246C15.3113 31.4403 15.7511 30.6344 15.8791 29.7534C16.0071 28.8723 15.8147 27.9746 15.337 27.2234C14.8593 26.4721 14.1279 25.9172 13.2758 25.6594C13.2795 25.6062 13.2811 25.5531 13.2811 25.5C13.2803 24.7958 13.0001 24.1206 12.5022 23.6227C12.0042 23.1247 11.3291 22.8446 10.6249 22.8438C10.4161 22.8437 10.2081 22.8688 10.0054 22.9187C9.74723 22.5258 9.41657 22.1858 9.03111 21.9167V20.1875H15.5039C15.612 20.498 15.8142 20.7672 16.0823 20.9577C16.3503 21.1482 16.671 21.2505 16.9999 21.2505C17.3287 21.2505 17.6494 21.1482 17.9175 20.9577C18.1855 20.7672 18.3877 20.498 18.4959 20.1875H24.9686V21.4094C24.4138 21.2412 23.8273 21.2055 23.2562 21.3051C22.6851 21.4048 22.1453 21.6371 21.6803 21.9832C21.2153 22.3294 20.838 22.7799 20.5787 23.2984C20.3194 23.8169 20.1854 24.389 20.1874 24.9688C20.187 25.255 20.2202 25.5402 20.2862 25.8187C19.5076 26.1637 18.8709 26.7654 18.4827 27.5234C18.0944 28.2814 17.9781 29.1496 18.1531 29.983C18.3281 30.8165 18.7839 31.5646 19.4443 32.1023C20.1046 32.6401 20.9295 32.9349 21.7811 32.9375H29.2186C30.1089 32.9328 30.9679 32.6089 31.6396 32.0246C32.3113 31.4403 32.7511 30.6344 32.8791 29.7534C33.0071 28.8723 32.8147 27.9746 32.337 27.2234C31.8593 26.4721 31.1279 25.9172 30.2758 25.6594ZM10.0936 15.4062C9.60525 15.4045 9.12203 15.3066 8.67151 15.1181C8.221 14.9296 7.81203 14.6542 7.46794 14.3077C7.12386 13.9611 6.8514 13.5502 6.66613 13.0983C6.48086 12.6465 6.38639 12.1626 6.38814 11.6742C6.38988 11.1859 6.4878 10.7026 6.67629 10.2521C6.86479 9.80161 7.14018 9.39264 7.48673 9.04856C7.83328 8.70447 8.24421 8.43201 8.69605 8.24674C9.1479 8.06147 9.63182 7.96701 10.1202 7.96875C10.1946 7.96912 10.2684 7.95384 10.3365 7.92388C10.4047 7.89392 10.4658 7.84997 10.5159 7.79486C10.566 7.73976 10.604 7.67474 10.6273 7.60402C10.6507 7.53331 10.6589 7.45847 10.6514 7.38437C10.636 7.225 10.6275 7.06562 10.6275 6.90625C10.6276 5.87395 10.962 4.86945 11.5807 4.0431C12.1994 3.21674 13.0691 2.61298 14.0596 2.32217C15.05 2.03136 16.1081 2.06916 17.0753 2.4299C18.0425 2.79064 18.8669 3.45492 19.425 4.32331C19.4952 4.43212 19.6027 4.51155 19.7274 4.54667C19.852 4.58179 19.9852 4.57018 20.1018 4.51403C20.4596 4.3403 20.8521 4.25003 21.2499 4.25C21.9541 4.25084 22.6292 4.53097 23.1272 5.02893C23.6251 5.52689 23.9053 6.20203 23.9061 6.90625C23.9053 7.06273 23.8906 7.21883 23.862 7.37269C23.8492 7.44425 23.8512 7.51767 23.8679 7.58842C23.8846 7.65917 23.9157 7.72574 23.9592 7.784C24.0026 7.84227 24.0576 7.89099 24.1207 7.92716C24.1837 7.96332 24.2535 7.98616 24.3258 7.99425C25.2666 8.10493 26.1298 8.57051 26.739 9.29593C27.3482 10.0214 27.6577 10.952 27.6041 11.8978C27.5505 12.8436 27.1381 13.7333 26.4508 14.3853C25.7636 15.0373 24.8534 15.4025 23.9061 15.4062H17.5311V14.246C17.8856 14.1207 18.1843 13.8741 18.3745 13.5498C18.5648 13.2255 18.6342 12.8444 18.5707 12.4739C18.5071 12.1033 18.3146 11.7672 18.0271 11.5249C17.7397 11.2826 17.3758 11.1496 16.9999 11.1496C16.6239 11.1496 16.26 11.2826 15.9726 11.5249C15.6852 11.7672 15.4926 12.1033 15.4291 12.4739C15.3655 12.8444 15.4349 13.2255 15.6252 13.5498C15.8154 13.8741 16.1141 14.1207 16.4686 14.246V15.4062H10.0936ZM16.4686 12.75C16.4686 12.6449 16.4998 12.5422 16.5581 12.4549C16.6165 12.3675 16.6995 12.2994 16.7966 12.2592C16.8936 12.219 17.0004 12.2085 17.1035 12.229C17.2066 12.2495 17.3012 12.3001 17.3755 12.3743C17.4498 12.4486 17.5004 12.5433 17.5209 12.6464C17.5414 12.7494 17.5309 12.8562 17.4907 12.9533C17.4505 13.0504 17.3824 13.1333 17.295 13.1917C17.2076 13.2501 17.1049 13.2812 16.9999 13.2812C16.859 13.2812 16.7238 13.2253 16.6242 13.1257C16.5246 13.026 16.4686 12.8909 16.4686 12.75ZM9.03111 28.1562C9.03111 28.2613 8.99995 28.364 8.94158 28.4514C8.8832 28.5388 8.80023 28.6069 8.70316 28.6471C8.60608 28.6873 8.49927 28.6978 8.39622 28.6773C8.29316 28.6568 8.1985 28.6062 8.12421 28.5319C8.04991 28.4576 7.99931 28.3629 7.97882 28.2599C7.95832 28.1568 7.96884 28.05 8.00905 27.9529C8.04926 27.8559 8.11735 27.7729 8.20471 27.7145C8.29207 27.6562 8.39479 27.625 8.49986 27.625C8.64075 27.625 8.77588 27.681 8.87551 27.7806C8.97514 27.8802 9.03111 28.0154 9.03111 28.1562ZM9.28611 23.7957C9.34675 23.9185 9.45242 24.0131 9.58108 24.0598C9.70975 24.1065 9.85148 24.1017 9.97673 24.0465C10.2519 23.9173 10.5587 23.8705 10.8599 23.9119C11.1611 23.9533 11.4439 24.0811 11.674 24.2798C11.9041 24.4785 12.0718 24.7397 12.1566 25.0316C12.2415 25.3236 12.24 25.6339 12.1522 25.925C12.132 25.9978 12.1276 26.0741 12.1393 26.1488C12.151 26.2235 12.1785 26.2948 12.2199 26.358C12.2613 26.4212 12.3158 26.4748 12.3796 26.5153C12.4434 26.5558 12.5151 26.5822 12.59 26.5928C13.2498 26.693 13.8478 27.0381 14.2648 27.5592C14.6819 28.0803 14.8875 28.7394 14.8407 29.4052C14.7939 30.071 14.4981 30.6948 14.0122 31.1524C13.5264 31.6101 12.886 31.8681 12.2186 31.875H4.78111C4.13924 31.8725 3.51999 31.6377 3.03786 31.214C2.55573 30.7902 2.24335 30.2062 2.15848 29.57C2.0736 28.9338 2.22198 28.2883 2.57617 27.753C2.93036 27.2177 3.4664 26.8288 4.08517 26.6581C4.15736 26.6384 4.22458 26.6037 4.28243 26.5563C4.34028 26.5088 4.38745 26.4497 4.42085 26.3827C4.45426 26.3158 4.47314 26.2425 4.47626 26.1678C4.47939 26.093 4.46668 26.0184 4.43898 25.9489C4.24499 25.4599 4.20056 24.9244 4.3113 24.4101C4.42205 23.8959 4.683 23.4261 5.06106 23.0603C5.43912 22.6946 5.91727 22.4493 6.4349 22.3556C6.95253 22.2619 7.48632 22.324 7.96861 22.534V26.6602C7.61415 26.7856 7.31541 27.0322 7.12518 27.3564C6.93495 27.6807 6.86548 28.0618 6.92906 28.4324C6.99264 28.8029 7.18516 29.139 7.4726 29.3814C7.76004 29.6237 8.1239 29.7566 8.49986 29.7566C8.87582 29.7566 9.23967 29.6237 9.52711 29.3814C9.81456 29.139 10.0071 28.8029 10.0707 28.4324C10.1342 28.0618 10.0648 27.6807 9.87454 27.3564C9.68431 27.0322 9.38556 26.7856 9.03111 26.6602V23.3867C9.12815 23.5152 9.21349 23.6521 9.28611 23.7957ZM16.9999 20.1875C16.8948 20.1875 16.7921 20.1563 16.7047 20.098C16.6173 20.0396 16.5493 19.9566 16.509 19.8596C16.4688 19.7625 16.4583 19.6557 16.4788 19.5526C16.4993 19.4496 16.5499 19.3549 16.6242 19.2806C16.6985 19.2063 16.7932 19.1557 16.8962 19.1352C16.9993 19.1147 17.1061 19.1252 17.2032 19.1654C17.3002 19.2056 17.3832 19.2737 17.4416 19.3611C17.5 19.4485 17.5311 19.5512 17.5311 19.6562C17.5311 19.7971 17.4751 19.9323 17.3755 20.0319C17.2759 20.1315 17.1408 20.1875 16.9999 20.1875ZM26.0311 28.1562C26.0311 28.2613 26 28.364 25.9416 28.4514C25.8832 28.5388 25.8002 28.6069 25.7032 28.6471C25.6061 28.6873 25.4993 28.6978 25.3962 28.6773C25.2932 28.6568 25.1985 28.6062 25.1242 28.5319C25.0499 28.4576 24.9993 28.3629 24.9788 28.2599C24.9583 28.1568 24.9688 28.05 25.009 27.9529C25.0493 27.8559 25.1173 27.7729 25.2047 27.7145C25.2921 27.6562 25.3948 27.625 25.4999 27.625C25.6408 27.625 25.7759 27.681 25.8755 27.7806C25.9751 27.8802 26.0311 28.0154 26.0311 28.1562ZM29.2186 31.875H21.7811C21.1392 31.8725 20.52 31.6377 20.0379 31.214C19.5557 30.7902 19.2433 30.2062 19.1585 29.57C19.0736 28.9338 19.222 28.2883 19.5762 27.753C19.9304 27.2177 20.4664 26.8288 21.0852 26.6581C21.1574 26.6384 21.2246 26.6037 21.2824 26.5563C21.3403 26.5088 21.3874 26.4497 21.4209 26.3827C21.4543 26.3158 21.4731 26.2425 21.4763 26.1678C21.4794 26.093 21.4667 26.0184 21.439 25.9489C21.245 25.4599 21.2006 24.9244 21.3113 24.4101C21.4221 23.8959 21.683 23.4261 22.0611 23.0603C22.4391 22.6946 22.9173 22.4493 23.4349 22.3556C23.9525 22.2619 24.4863 22.324 24.9686 22.534V26.6602C24.6141 26.7856 24.3154 27.0322 24.1252 27.3564C23.9349 27.6807 23.8655 28.0618 23.9291 28.4324C23.9926 28.8029 24.1852 29.139 24.4726 29.3814C24.76 29.6237 25.1239 29.7566 25.4999 29.7566C25.8758 29.7566 26.2397 29.6237 26.5271 29.3814C26.8146 29.139 27.0071 28.8029 27.0707 28.4324C27.1342 28.0618 27.0648 27.6807 26.8745 27.3564C26.6843 27.0322 26.3856 26.7856 26.0311 26.6602V23.3867C26.1281 23.5152 26.2135 23.6521 26.2861 23.7957C26.3467 23.9185 26.4524 24.0131 26.5811 24.0598C26.7097 24.1065 26.8515 24.1017 26.9767 24.0465C27.2519 23.9173 27.5587 23.8705 27.8599 23.9119C28.1611 23.9533 28.4439 24.0811 28.674 24.2798C28.9041 24.4785 29.0718 24.7397 29.1566 25.0316C29.2415 25.3236 29.24 25.6339 29.1522 25.925C29.132 25.9978 29.1276 26.0741 29.1393 26.1488C29.151 26.2235 29.1785 26.2948 29.2199 26.358C29.2613 26.4212 29.3158 26.4748 29.3796 26.5153C29.4434 26.5558 29.5151 26.5822 29.59 26.5928C30.2498 26.693 30.8478 27.0381 31.2648 27.5592C31.6819 28.0803 31.8875 28.7394 31.8407 29.4052C31.7939 30.071 31.4981 30.6948 31.0122 31.1524C30.5264 31.6101 29.886 31.8681 29.2186 31.875Z" fill="white"/>
</svg>
