<svg width="30" height="30" viewBox="0 0 30 30" fill="none" xmlns="http://www.w3.org/2000/svg">
<path d="M7.96359 15.9289C12.3557 15.9289 15.9289 12.3557 15.9289 7.96365C15.9289 3.57246 12.3557 0 7.96359 0C3.57246 0 0 3.57246 0 7.96365C0 12.3557 3.57246 15.9289 7.96359 15.9289ZM7.96359 1.17188C11.7096 1.17188 14.757 4.21863 14.757 7.96365C14.757 11.7096 11.7095 14.7571 7.96359 14.7571C4.21863 14.7571 1.17188 11.7096 1.17188 7.96365C1.17188 4.21863 4.21863 1.17188 7.96359 1.17188Z" fill="white"/>
<path d="M22.0347 14.071C17.6436 14.071 14.071 17.6435 14.071 22.0347C14.071 26.4268 17.6435 30 22.0347 30C26.4268 30 29.9999 26.4268 29.9999 22.0347C29.9999 17.6436 26.4268 14.071 22.0347 14.071ZM22.0347 28.8281C18.2897 28.8281 15.2429 25.7806 15.2429 22.0347C15.2429 18.2897 18.2897 15.2429 22.0347 15.2429C25.7806 15.2429 28.8281 18.2897 28.8281 22.0347C28.8281 25.7806 25.7805 28.8281 22.0347 28.8281Z" fill="white"/>
<path d="M7.96362 11.8604C7.64007 11.8604 7.37769 12.1228 7.37769 12.4464V12.4497C7.37769 12.7733 7.64007 13.034 7.96362 13.034C8.28718 13.034 8.54956 12.77 8.54956 12.4464C8.54956 12.1228 8.28724 11.8604 7.96362 11.8604Z" fill="white"/>
<path d="M5.91742 6.11139C6.24098 6.11139 6.50336 5.84907 6.50336 5.52545C6.50336 5.45608 6.50811 5.38782 6.51777 5.32002C6.61873 4.58942 7.25441 4.05041 7.99586 4.06506C8.75699 4.07936 9.38389 4.68592 9.42308 5.44635C9.44424 5.85252 9.30226 6.23801 9.02342 6.53186C8.74451 6.82565 8.3681 6.98742 7.96363 6.98742C7.64008 6.98742 7.37769 7.24975 7.37769 7.57336V9.71256C7.37769 10.0362 7.64008 10.2985 7.96363 10.2985C8.28719 10.2985 8.54957 10.0362 8.54957 9.71256V8.09256C9.05101 7.97725 9.5149 7.71621 9.87332 7.33858C10.3757 6.8093 10.6314 6.11561 10.5934 5.38559C10.5227 4.01379 9.39133 2.91909 8.01889 2.89336C6.68289 2.86541 5.53932 3.84018 5.35732 5.15696C5.34021 5.27684 5.33154 5.40082 5.33154 5.52545C5.33148 5.84907 5.59387 6.11139 5.91742 6.11139Z" fill="white"/>
<path d="M22.033 18.7138C22.3565 18.7138 22.6189 18.4499 22.6189 18.1263C22.6189 17.8027 22.3565 17.5403 22.033 17.5403C21.7094 17.5403 21.447 17.8027 21.447 18.1263V18.1296C21.447 18.4532 21.7094 18.7138 22.033 18.7138Z" fill="white"/>
<path d="M22.0364 20.8057C21.7128 20.8057 21.4504 21.068 21.4504 21.3916V26.1914C21.4504 26.515 21.7128 26.7774 22.0364 26.7774C22.3599 26.7774 22.6223 26.515 22.6223 26.1914V21.3916C22.6223 21.068 22.3599 20.8057 22.0364 20.8057Z" fill="white"/>
<path d="M13.1539 27.3679H7.32579C6.17829 27.3679 5.24466 26.4343 5.24466 25.2868V19.4276L6.44102 21.4213C6.55095 21.6045 6.74512 21.706 6.94434 21.706C7.047 21.706 7.151 21.679 7.24546 21.6223C7.52313 21.4557 7.61313 21.0956 7.44655 20.8179L5.16116 17.0095C5.05516 16.8329 4.86438 16.7249 4.65843 16.7249C4.45247 16.7249 4.26169 16.8329 4.15569 17.0095L1.8703 20.8179C1.70366 21.0956 1.79366 21.4557 2.07139 21.6223C2.34919 21.789 2.70925 21.6988 2.87583 21.4213L4.07219 19.4276V25.2868C4.07219 27.0809 5.53177 28.5405 7.32585 28.5405H13.1539C13.4777 28.5405 13.7402 28.278 13.7402 27.9542C13.7402 27.6304 13.4777 27.3679 13.1539 27.3679Z" fill="white"/>
<path d="M27.9286 8.37616C27.6511 8.20928 27.2907 8.2994 27.1242 8.57696L25.9261 10.5721V4.71323C25.9261 2.91915 24.4673 1.45952 22.6741 1.45952H16.8443C16.5206 1.45952 16.2581 1.72202 16.2581 2.04581C16.2581 2.3696 16.5205 2.6321 16.8443 2.6321H22.6741C23.8206 2.6321 24.7535 3.56567 24.7535 4.71317V10.5707L23.5571 8.57702C23.3906 8.2994 23.0304 8.20934 22.7527 8.37598C22.475 8.54262 22.385 8.90274 22.5516 9.18042L24.837 12.9888C24.943 13.1654 25.1337 13.2734 25.3396 13.2734H25.3397C25.5456 13.2734 25.7364 13.1654 25.8424 12.989L28.1294 9.18053C28.2962 8.90303 28.2063 8.54286 27.9286 8.37616Z" fill="white"/>
</svg>
