<svg width="32" height="27" viewBox="0 0 32 27" fill="none" xmlns="http://www.w3.org/2000/svg">
<path d="M18.1361 11.962C18.1361 10.7842 17.1733 9.82597 15.9897 9.82597C14.8061 9.82597 13.8433 10.7842 13.8433 11.962C13.8433 12.9526 14.5244 13.7876 15.4449 14.0283L15.4558 16.2917C15.4572 16.5905 15.7019 16.8241 16.0027 16.8241H16.0054C16.3075 16.8241 16.5512 16.5893 16.5498 16.2895L16.5389 14.027C17.4573 13.7849 18.1361 12.951 18.1361 11.962ZM15.9898 13.0127C15.4095 13.0127 14.9374 12.5414 14.9374 11.962C14.9374 11.3827 15.4094 10.9114 15.9898 10.9114C16.57 10.9114 17.0422 11.3827 17.0422 11.962C17.0422 12.5414 16.57 13.0127 15.9898 13.0127Z" fill="white"/>
<path d="M29.9467 11.3296C29.0042 11.3296 28.2085 11.9397 27.9682 12.8216H24.2863C24.5023 11.804 24.6594 10.7864 24.7815 9.701H27.4531C27.7551 9.701 27.9658 9.4791 27.9658 9.17939V3.99647C28.8547 3.75951 29.4922 2.97007 29.4922 2.03477C29.4922 0.912777 28.5797 0 27.4475 0C26.3153 0 25.3814 0.912777 25.3814 2.03477C25.3814 2.96797 26.0513 3.75592 26.8718 3.99485V8.61558H24.8946C24.9741 7.80151 25.0375 6.92469 25.0963 6.06035C25.1199 5.71389 24.8053 5.44979 24.4665 5.50203C23.8169 5.62529 23.1601 5.71817 22.4974 5.71817C20.2964 5.71803 18.274 4.72785 16.3475 2.72123C16.0736 2.4897 15.8042 2.49465 15.5394 2.73609C13.4935 5.11731 10.6548 6.10722 7.53395 5.50183C7.19385 5.43582 6.85956 5.71382 6.88321 6.06048C6.94318 6.93852 7.00629 7.80151 7.08335 8.61558H5.26496V3.99485C6.08547 3.75592 6.76246 2.96803 6.76246 2.03477C6.76246 0.912777 5.8385 0 4.70633 0C3.57415 0 2.65737 0.912777 2.65737 2.03477C2.65737 2.97014 3.28205 3.75951 4.17094 3.99647V9.17932C4.17094 9.47903 4.40424 9.70094 4.70633 9.70094H7.19398C7.31487 10.7864 7.46906 11.804 7.68178 12.8215H4.03186C3.79152 11.9396 2.9959 11.3295 2.05333 11.3295C0.921094 11.3296 0 12.2424 0 13.3644C0 14.4863 0.921094 15.3991 2.05327 15.3991C2.99583 15.3991 3.79145 14.7889 4.0318 13.907H7.94263C8.23556 14.9948 8.64964 16.0038 9.11098 17.0276H4.70633C4.40424 17.0276 4.17094 17.2496 4.17094 17.5493V23.0043C3.28205 23.2423 2.65894 24.0309 2.65894 24.9652C2.65894 26.0872 3.57709 27 4.70927 27C5.8415 27 6.76691 26.0872 6.76691 24.9652C6.76691 24.0309 6.15385 23.2423 5.26496 23.0043V18.1131H9.73716C11.1381 20.2839 13.1407 21.8129 15.8063 22.7991C15.935 22.8374 16.0639 22.8377 16.1928 22.8001C18.8337 21.7976 20.8223 20.2161 22.2187 18.1131H26.8718V23.0043C26.0513 23.2423 25.3826 24.0309 25.3826 24.9652C25.3826 26.0872 26.3123 27 27.4445 27C28.5768 27 29.4849 26.0872 29.4849 24.9652C29.4849 24.0309 28.8547 23.2423 27.9658 23.0043V17.5494C27.9658 17.2497 27.7551 17.0277 27.4531 17.0277H22.8485C23.3187 16.0069 23.7317 14.9935 24.024 13.9071H27.9681C28.2085 14.789 29.0041 15.3992 29.9467 15.3992C31.0789 15.3991 32 14.4863 32 13.3643C32 12.2423 31.0789 11.3296 29.9467 11.3296ZM26.4968 2.03477C26.4968 1.51125 26.9271 1.08543 27.456 1.08543C27.9849 1.08543 28.4152 1.51125 28.4152 2.03477C28.4152 2.55828 27.9849 2.98411 27.456 2.98411C26.9271 2.98411 26.4968 2.55828 26.4968 2.03477ZM3.74414 2.03477C3.74414 1.51125 4.1745 1.08543 4.70338 1.08543C5.23227 1.08543 5.66263 1.51125 5.66263 2.03477C5.66263 2.55828 5.23227 2.98411 4.70338 2.98411C4.1745 2.98411 3.74414 2.55828 3.74414 2.03477ZM2.05327 14.3137C1.52438 14.3137 1.09402 13.8878 1.09402 13.3644C1.09402 12.8409 1.52438 12.415 2.05327 12.415C2.58215 12.415 3.01251 12.8409 3.01251 13.3644C3.01258 13.8878 2.58222 14.3137 2.05327 14.3137ZM5.66557 24.9652C5.66557 25.4887 5.23521 25.9146 4.70633 25.9146C4.17744 25.9146 3.74715 25.4887 3.74715 24.9652C3.74715 24.4417 4.17744 24.0159 4.70633 24.0159C5.23521 24.0159 5.66557 24.4417 5.66557 24.9652ZM28.4123 24.9652C28.4123 25.4887 27.982 25.9146 27.4531 25.9146C26.9242 25.9146 26.4938 25.4887 26.4938 24.9652C26.4938 24.4417 26.9242 24.0159 27.4531 24.0159C27.982 24.0159 28.4123 24.4417 28.4123 24.9652ZM8.02297 6.67931C10.9744 7.0567 13.99 6.14447 15.9768 3.88847C18.127 5.95689 20.9311 7.17583 23.957 6.67517C23.4456 13.6497 22.3919 19.1695 15.9949 21.6984C9.59419 19.229 8.53792 13.6894 8.02297 6.67931ZM29.9467 14.3137C29.4178 14.3137 28.9875 13.8878 28.9875 13.3644C28.9875 12.8409 29.4178 12.415 29.9467 12.415C30.4756 12.415 30.906 12.8409 30.906 13.3644C30.906 13.8878 30.4756 14.3137 29.9467 14.3137Z" fill="white"/>
</svg>
