<svg width="31" height="31" viewBox="0 0 31 31" fill="none" xmlns="http://www.w3.org/2000/svg">
<path d="M28.835 0H2.1647C0.971112 0 0 1.08152 0 2.41071V22.0717C0 23.4009 0.971112 24.482 2.1647 24.482H11.9892L11.7104 27.5585H9.0142C8.5581 27.5594 8.12093 27.741 7.79842 28.0635C7.4759 28.386 7.29433 28.8231 7.29346 29.2793C7.29433 29.7354 7.4759 30.1725 7.79842 30.495C8.12093 30.8176 8.5581 30.9991 9.0142 31H21.9848C22.4408 30.999 22.8779 30.8174 23.2004 30.4949C23.5228 30.1724 23.7043 29.7353 23.7052 29.2793C23.7043 28.8232 23.5228 28.3861 23.2004 28.0636C22.8779 27.7411 22.4408 27.5595 21.9848 27.5585H19.2886L19.0098 24.482H28.835C30.0286 24.482 31 23.4009 31 22.0717V2.41071C31 1.08152 30.0286 0 28.835 0ZM22.5448 29.2793C22.545 29.3535 22.5303 29.427 22.5014 29.4953C22.4725 29.5637 22.4301 29.6255 22.3767 29.6771C22.3255 29.7288 22.2644 29.7698 22.1971 29.7975C22.1298 29.8253 22.0576 29.8392 21.9848 29.8386H9.0142C8.86565 29.8384 8.72323 29.7793 8.61819 29.6743C8.51315 29.5692 8.45406 29.4268 8.45388 29.2783C8.45371 29.204 8.46857 29.1304 8.49758 29.0621C8.52658 28.9937 8.56912 28.9319 8.62264 28.8804C8.67378 28.8286 8.73478 28.7877 8.80204 28.7599C8.8693 28.7322 8.94145 28.7183 9.0142 28.7189H21.9848C22.1333 28.7192 22.2756 28.7783 22.3806 28.8834C22.4856 28.9884 22.5446 29.1308 22.5448 29.2793ZM12.8758 27.5585L13.1483 24.55H17.8507L18.1232 27.5585H12.8758ZM1.16043 2.41071C1.16043 1.72108 1.61101 1.16043 2.1647 1.16043H28.835C29.389 1.16043 29.8396 1.72108 29.8396 2.41071V19.2767H22.3595C22.3886 19.1948 22.4211 19.1146 22.4473 19.032L23.9247 18.7668C24.2028 18.714 24.4539 18.566 24.6346 18.3481C24.8154 18.1303 24.9145 17.8563 24.915 17.5732V16.1296C24.9156 15.8456 24.8162 15.5704 24.6344 15.3523C24.4526 15.1341 24.1999 14.9867 23.9204 14.936L22.4486 14.6708C22.3184 14.2555 22.1513 13.8528 21.9493 13.4673L22.8027 12.2405C22.9647 12.0069 23.0393 11.7238 23.0135 11.4408C22.9878 11.1577 22.8633 10.8927 22.6618 10.6922L21.6443 9.67465C21.4446 9.4711 21.179 9.3452 20.895 9.31945C20.611 9.2937 20.3271 9.36977 20.094 9.53407L18.8672 10.3862C18.4817 10.1839 18.079 10.0165 17.6637 9.88585L17.3985 8.41841C17.3488 8.13804 17.2019 7.88414 16.9836 7.70133C16.7653 7.51851 16.4896 7.41847 16.2049 7.41878H14.762C14.4774 7.41822 14.2017 7.518 13.9834 7.70059C13.7651 7.88317 13.6181 8.13687 13.5684 8.41708L13.3031 9.88585C12.888 10.0168 12.4852 10.1842 12.0996 10.3862L10.8752 9.53739C10.6427 9.3723 10.359 9.2953 10.0749 9.32014C9.79086 9.34499 9.52487 9.47006 9.32454 9.67299L8.30568 10.6922C8.10437 10.8927 7.98001 11.1577 7.95437 11.4407C7.92873 11.7237 8.00345 12.0067 8.16543 12.2402L9.01851 13.4669C8.81621 13.8526 8.64867 14.2554 8.51787 14.6708L7.04579 14.936C6.76636 14.9868 6.51366 15.1341 6.33185 15.3523C6.15004 15.5705 6.05068 15.8456 6.05113 16.1296V17.5719C6.05193 17.856 6.15195 18.131 6.33393 18.3492C6.5159 18.5674 6.76839 18.7153 7.04778 18.7671L8.51887 19.0323C8.54506 19.1149 8.57788 19.1951 8.60673 19.277H1.16043V2.41071ZM10.1766 13.1032L9.11566 11.5781C9.10889 11.5679 9.10595 11.5557 9.10734 11.5435C9.10874 11.5314 9.11438 11.5201 9.12328 11.5118L10.1464 10.4889C10.155 10.4811 10.166 10.4767 10.1776 10.4763C10.1891 10.4759 10.2004 10.4797 10.2094 10.487L11.7346 11.5439C11.8254 11.6073 11.9326 11.6432 12.0432 11.6474C12.1539 11.6516 12.2635 11.624 12.3589 11.5678C12.8571 11.2735 13.394 11.0503 13.954 10.9047C14.0614 10.877 14.1586 10.8192 14.2342 10.738C14.3098 10.6568 14.3605 10.5556 14.3804 10.4465L14.7119 8.62132C14.7138 8.6093 14.7198 8.59833 14.729 8.59032C14.7381 8.58232 14.7498 8.5778 14.762 8.57755H16.2039C16.2163 8.57784 16.2282 8.58253 16.2374 8.5908C16.2466 8.59906 16.2526 8.61036 16.2543 8.62264L16.5858 10.4462C16.6058 10.5553 16.6565 10.6565 16.7322 10.7377C16.8078 10.8189 16.9051 10.8767 17.0125 10.9044C17.5724 11.0498 18.1091 11.273 18.607 11.5675C18.7025 11.6236 18.8121 11.6511 18.9228 11.6469C19.0335 11.6427 19.1406 11.6068 19.2316 11.5436L20.7594 10.4843C20.769 10.478 20.7805 10.4752 20.7919 10.4764C20.8033 10.4776 20.814 10.4828 20.8221 10.4909L21.8422 11.5114C21.8512 11.5197 21.857 11.531 21.8585 11.5431C21.8599 11.5553 21.857 11.5676 21.8502 11.5778L20.7892 13.1029C20.7257 13.1942 20.6897 13.302 20.6856 13.4132C20.6816 13.5244 20.7096 13.6344 20.7664 13.7302C21.0612 14.2275 21.2845 14.7639 21.4295 15.3236C21.4572 15.431 21.5152 15.5281 21.5964 15.6036C21.6777 15.679 21.7789 15.7296 21.888 15.7493L23.7142 16.0809C23.7259 16.0832 23.7364 16.0895 23.7441 16.0987C23.7518 16.1078 23.7561 16.1193 23.7563 16.1313V17.5735C23.7564 17.5856 23.7524 17.5974 23.745 17.6071C23.7376 17.6167 23.7272 17.6235 23.7155 17.6266L21.889 17.9541C21.7797 17.9738 21.6784 18.0243 21.5969 18.0997C21.5155 18.1752 21.4574 18.2724 21.4295 18.3799C21.3514 18.6812 21.2505 18.9761 21.1277 19.2621H19.0741C19.511 18.6112 19.7628 17.8537 19.8025 17.0707C19.8421 16.2877 19.6683 15.5087 19.2994 14.8169C18.9306 14.1251 18.3806 13.5466 17.7084 13.1432C17.0361 12.7398 16.2669 12.5267 15.4829 12.5267C14.6989 12.5267 13.9297 12.7398 13.2575 13.1432C12.5852 13.5466 12.0353 14.1251 11.6664 14.8169C11.2976 15.5087 11.1237 16.2877 11.1634 17.0707C11.2031 17.8537 11.4548 18.6112 11.8917 19.2621H9.8401C9.7173 18.9761 9.61644 18.6812 9.53839 18.3799C9.51064 18.2722 9.4526 18.1748 9.37115 18.0992C9.28969 18.0235 9.18825 17.9728 9.07886 17.9531L7.25831 17.6269C7.24545 17.6247 7.23374 17.6182 7.2252 17.6083C7.21667 17.5984 7.21184 17.5859 7.21156 17.5729V16.1296C7.21183 16.1177 7.2161 16.1063 7.22368 16.0971C7.23126 16.088 7.24171 16.0817 7.25334 16.0792L9.08018 15.7477C9.1893 15.7279 9.29049 15.6774 9.37175 15.6019C9.45301 15.5265 9.51096 15.4293 9.53872 15.322C9.68289 14.7623 9.90558 14.2258 10.2002 13.7285C10.2563 13.6329 10.284 13.5232 10.2798 13.4124C10.2756 13.3016 10.2398 13.1943 10.1766 13.1032ZM12.3174 16.8517C12.3174 16.3205 12.451 15.7979 12.7061 15.3319C12.9611 14.8659 13.3294 14.4717 13.7769 14.1854C14.2244 13.8992 14.7367 13.7302 15.2667 13.694C15.7966 13.6579 16.3272 13.7557 16.8094 13.9785C17.2916 14.2013 17.71 14.5419 18.026 14.9689C18.342 15.3959 18.5454 15.8956 18.6175 16.4219C18.6896 16.9482 18.628 17.4841 18.4385 17.9804C18.249 18.4766 17.9376 18.9172 17.5331 19.2614H13.4321C13.0815 18.9657 12.8 18.5966 12.6074 18.1803C12.4148 17.7639 12.3158 17.3105 12.3174 16.8517ZM29.8386 22.0717C29.8386 22.7606 29.388 23.3216 28.834 23.3216H2.1647C1.61101 23.3216 1.16043 22.7606 1.16043 22.0717V20.4371H29.8396L29.8386 22.0717Z" fill="white"/>
<path d="M3.31584 2.62887C3.28419 2.60754 3.25093 2.5887 3.21637 2.5725C3.1799 2.55924 3.1431 2.54929 3.10696 2.53935C3.03229 2.52608 2.95585 2.52608 2.88118 2.53935C2.84402 2.54799 2.80747 2.55907 2.77176 2.5725C2.70315 2.60521 2.63961 2.64764 2.58311 2.69849C2.50162 2.77964 2.44609 2.88318 2.42356 2.99595C2.40103 3.10873 2.41252 3.22566 2.45658 3.33189C2.50063 3.43812 2.57526 3.52886 2.67099 3.59259C2.76672 3.65632 2.87923 3.69017 2.99424 3.68983C3.1479 3.68913 3.29508 3.62778 3.40374 3.51912C3.5124 3.41046 3.57375 3.26328 3.57445 3.10962C3.57344 2.9552 3.51148 2.80744 3.40204 2.69849C3.37565 2.67252 3.34678 2.6492 3.31584 2.62887Z" fill="white"/>
<path d="M4.38012 2.69849C4.27291 2.80864 4.21234 2.95591 4.21103 3.10961C4.21103 3.2635 4.27216 3.41108 4.38097 3.51989C4.48978 3.6287 4.63736 3.68983 4.79124 3.68983C4.94512 3.68983 5.0927 3.6287 5.20151 3.51989C5.31032 3.41108 5.37145 3.2635 5.37145 3.10961C5.37005 2.95587 5.30936 2.80859 5.20203 2.69849C5.09042 2.59457 4.94358 2.5368 4.79107 2.5368C4.63857 2.5368 4.49173 2.59457 4.38012 2.69849Z" fill="white"/>
<path d="M6.58825 3.68983C6.66453 3.69014 6.74011 3.67534 6.81065 3.64629C6.88118 3.61724 6.94526 3.57451 6.9992 3.52057C7.05314 3.46663 7.09587 3.40255 7.12492 3.33202C7.15397 3.26148 7.16877 3.1859 7.16846 3.10961C7.16705 2.95587 7.10636 2.80859 6.99904 2.69849C6.88739 2.59465 6.74056 2.53692 6.58808 2.53692C6.4356 2.53692 6.28877 2.59465 6.17712 2.69849C6.06992 2.80864 6.00935 2.95591 6.00803 3.10961C6.00764 3.18592 6.02237 3.26155 6.05139 3.33212C6.08041 3.40269 6.12313 3.46681 6.17709 3.52077C6.23105 3.57473 6.29517 3.61745 6.36574 3.64647C6.43631 3.67549 6.51194 3.69022 6.58825 3.68983Z" fill="white"/>
</svg>
