<svg width="28" height="28" viewBox="0 0 28 28" fill="none" xmlns="http://www.w3.org/2000/svg">
<path d="M4.68604 23.8438H3.62647C3.32443 23.8438 3.07959 24.0886 3.07959 24.3906C3.07959 24.6926 3.32443 24.9375 3.62647 24.9375H4.68604C4.98807 24.9375 5.23291 24.6926 5.23291 24.3906C5.23291 24.0886 4.98802 23.8438 4.68604 23.8438Z" fill="white"/>
<path d="M5.83105 24.3906C5.83105 24.6926 6.07589 24.9375 6.37793 24.9375H7.4375C7.73954 24.9375 7.98438 24.6926 7.98438 24.3906C7.98438 24.0886 7.73954 23.8438 7.4375 23.8438H6.37793C6.07589 23.8438 5.83105 24.0886 5.83105 24.3906Z" fill="white"/>
<path d="M9.12939 24.9375H10.189C10.491 24.9375 10.7358 24.6926 10.7358 24.3906C10.7358 24.0886 10.491 23.8438 10.189 23.8438H9.12939C8.82736 23.8438 8.58252 24.0886 8.58252 24.3906C8.58252 24.6926 8.82736 24.9375 9.12939 24.9375Z" fill="white"/>
<path d="M25.2383 22.2031H21.6562V19.5781C21.6562 18.6132 20.8712 17.8281 19.9062 17.8281H14.5469V15.0938H22.75C24.8609 15.0938 26.5781 13.3765 26.5781 11.2656C26.5781 9.5772 25.4901 8.11202 23.9011 7.61441C23.0065 5.88695 21.0621 4.94014 19.1265 5.34084C17.9335 3.76305 15.9022 3.24581 14.1781 3.86006C13.169 2.34467 11.4665 1.42188 9.62494 1.42188L9.57086 1.42215C6.45367 1.45234 3.94406 4.12005 4.1702 7.28465C4.18245 7.45555 4.07591 7.61786 3.91125 7.67933C2.42227 8.23506 1.42188 9.6763 1.42188 11.2656C1.42188 13.3765 3.13917 15.0938 5.25 15.0938H13.4531V17.8281H8.09375C7.12879 17.8281 6.34375 18.6132 6.34375 19.5781V22.2031H2.76172C2.02295 22.2031 1.42188 22.8041 1.42188 23.543V25.2383C1.42188 25.9771 2.02295 26.5781 2.76172 26.5781H11.0195C11.7583 26.5781 12.3594 25.9771 12.3594 25.2383V23.543C12.3594 22.8041 11.7583 22.2031 11.0195 22.2031H7.4375V19.5781C7.4375 19.2163 7.73188 18.9219 8.09375 18.9219H19.9062C20.2681 18.9219 20.5625 19.2163 20.5625 19.5781V22.2031H16.9805C16.2416 22.2031 15.6406 22.8041 15.6406 23.543V25.2383C15.6406 25.9771 16.2416 26.5781 16.9805 26.5781H25.2383C25.9771 26.5781 26.5781 25.9771 26.5781 25.2383V23.543C26.5781 22.8041 25.9771 22.2031 25.2383 22.2031ZM2.51562 11.2656C2.51562 10.1304 3.23017 9.10098 4.29373 8.70401C4.90995 8.47405 5.3078 7.85827 5.26121 7.20666C5.07981 4.67059 7.12398 2.53963 9.58147 2.51584L9.62494 2.51562C11.2319 2.51562 12.7066 3.39407 13.4736 4.80813C13.6135 5.06614 13.9321 5.1677 14.1956 5.0382C15.6696 4.3137 17.5116 4.78144 18.4281 6.25373C18.5591 6.46428 18.8155 6.5602 19.0526 6.48758C20.6297 6.00414 22.3387 6.76944 23.016 8.29691C23.0851 8.45277 23.2229 8.5674 23.3887 8.6071C24.6226 8.90219 25.4844 9.9954 25.4844 11.2656C25.4844 12.7733 24.2577 14 22.75 14H5.25C3.74227 14 2.51562 12.7733 2.51562 11.2656ZM11.2656 23.543V25.2383C11.2656 25.374 11.1552 25.4844 11.0195 25.4844H2.76172C2.62604 25.4844 2.51562 25.374 2.51562 25.2383V23.543C2.51562 23.4073 2.62604 23.2969 2.76172 23.2969H11.0195C11.1552 23.2969 11.2656 23.4073 11.2656 23.543ZM25.4844 25.2383C25.4844 25.374 25.374 25.4844 25.2383 25.4844H16.9805C16.8448 25.4844 16.7344 25.374 16.7344 25.2383V23.543C16.7344 23.4073 16.8448 23.2969 16.9805 23.2969H25.2383C25.374 23.2969 25.4844 23.4073 25.4844 23.543V25.2383Z" fill="white"/>
<path d="M18.9048 23.8438H17.8452C17.5432 23.8438 17.2983 24.0886 17.2983 24.3906C17.2983 24.6926 17.5432 24.9375 17.8452 24.9375H18.9048C19.2068 24.9375 19.4517 24.6926 19.4517 24.3906C19.4517 24.0886 19.2068 23.8438 18.9048 23.8438Z" fill="white"/>
<path d="M21.6562 23.8438H20.5967C20.2946 23.8438 20.0498 24.0886 20.0498 24.3906C20.0498 24.6926 20.2946 24.9375 20.5967 24.9375H21.6562C21.9582 24.9375 22.2031 24.6926 22.2031 24.3906C22.2031 24.0886 21.9582 23.8438 21.6562 23.8438Z" fill="white"/>
<path d="M24.4077 23.8438H23.3481C23.0462 23.8438 22.8013 24.0886 22.8013 24.3906C22.8013 24.6926 23.0462 24.9375 23.3481 24.9375H24.4077C24.7097 24.9375 24.9546 24.6926 24.9546 24.3906C24.9546 24.0886 24.7097 23.8438 24.4077 23.8438Z" fill="white"/>
</svg>
