<svg width="31" height="31" viewBox="0 0 31 31" fill="none" xmlns="http://www.w3.org/2000/svg">
<g clip-path="url(#clip0_22_83)">
<path d="M30.3934 28.5783H19.5563C19.2219 28.5783 18.9509 28.8494 18.9509 29.1837C18.9509 29.5181 19.222 29.7891 19.5563 29.7891H30.3934C30.7278 29.7891 30.9988 29.5181 30.9988 29.1837C30.9988 28.8494 30.7277 28.5783 30.3934 28.5783Z" fill="white"/>
<path d="M11.3831 28.5783H0.606629C0.272228 28.5783 0.0012207 28.8494 0.0012207 29.1837C0.0012207 29.5181 0.272289 29.7891 0.606629 29.7891H11.3831C11.7175 29.7891 11.9885 29.5181 11.9885 29.1837C11.9885 28.8494 11.7175 28.5783 11.3831 28.5783Z" fill="white"/>
<path d="M15.7393 12.3852H11.0474C10.713 12.3852 10.442 12.6562 10.442 12.9906C10.442 13.325 10.7131 13.596 11.0474 13.596H15.7393C16.0737 13.596 16.3447 13.3249 16.3447 12.9906C16.3447 12.6562 16.0737 12.3852 15.7393 12.3852Z" fill="white"/>
<path d="M20.4517 12.5624C20.3391 12.4498 20.1829 12.385 20.0237 12.385C19.8639 12.385 19.7077 12.4498 19.5957 12.5624C19.4825 12.6751 19.4183 12.8313 19.4183 12.9905C19.4183 13.1497 19.4825 13.3059 19.5957 13.4185C19.7084 13.5311 19.864 13.5959 20.0237 13.5959C20.183 13.5959 20.3392 13.5311 20.4517 13.4185C20.5643 13.3058 20.6292 13.1496 20.6292 12.9905C20.6292 12.8313 20.5644 12.6751 20.4517 12.5624Z" fill="white"/>
<path d="M18.337 12.5624C18.2238 12.4498 18.0682 12.385 17.9084 12.385C17.7491 12.385 17.5929 12.4498 17.4804 12.5624C17.3678 12.6751 17.303 12.8313 17.303 12.9905C17.303 13.1503 17.3678 13.3059 17.4804 13.4185C17.5936 13.5311 17.7492 13.5959 17.9084 13.5959C18.0676 13.5959 18.2238 13.5311 18.337 13.4185C18.4496 13.3058 18.5138 13.1496 18.5138 12.9905C18.5138 12.8313 18.4496 12.6751 18.337 12.5624Z" fill="white"/>
<path d="M15.7393 17.2286H11.0474C10.713 17.2286 10.442 17.4996 10.442 17.834C10.442 18.1683 10.7131 18.4394 11.0474 18.4394H15.7393C16.0737 18.4394 16.3447 18.1683 16.3447 17.834C16.3447 17.4996 16.0737 17.2286 15.7393 17.2286Z" fill="white"/>
<path d="M20.4517 17.4058C20.3391 17.2932 20.1829 17.2284 20.0237 17.2284C19.8639 17.2284 19.7083 17.2932 19.5957 17.4058C19.4825 17.5185 19.4183 17.6747 19.4183 17.8338C19.4183 17.9937 19.4825 18.1493 19.5957 18.2618C19.7084 18.3745 19.864 18.4393 20.0237 18.4393C20.183 18.4393 20.3392 18.3745 20.4517 18.2618C20.5643 18.1492 20.6292 17.993 20.6292 17.8338C20.6292 17.6747 20.5644 17.5185 20.4517 17.4058Z" fill="white"/>
<path d="M18.337 17.4058C18.2238 17.2932 18.0682 17.2284 17.9084 17.2284C17.7491 17.2284 17.5929 17.2932 17.4804 17.4058C17.3678 17.5185 17.303 17.6747 17.303 17.8338C17.303 17.993 17.3678 18.1493 17.4804 18.2618C17.593 18.3745 17.7492 18.4393 17.9084 18.4393C18.0682 18.4393 18.2238 18.3745 18.337 18.2618C18.4496 18.1492 18.5138 17.993 18.5138 17.8338C18.5138 17.6747 18.4496 17.5185 18.337 17.4058Z" fill="white"/>
<path d="M15.7393 22.0719H11.0474C10.713 22.0719 10.442 22.343 10.442 22.6773C10.442 23.0117 10.7131 23.2828 11.0474 23.2828H15.7393C16.0737 23.2828 16.3447 23.0117 16.3447 22.6773C16.3447 22.343 16.0737 22.0719 15.7393 22.0719Z" fill="white"/>
<path d="M20.4517 22.2492C20.3385 22.1366 20.1829 22.0718 20.0237 22.0718C19.8639 22.0718 19.7083 22.1366 19.5951 22.2492C19.4825 22.3618 19.4183 22.5181 19.4183 22.6772C19.4183 22.8364 19.4825 22.9927 19.5951 23.1052C19.7084 23.2179 19.864 23.2826 20.0237 23.2826C20.183 23.2826 20.3392 23.2179 20.4517 23.1052C20.5643 22.9926 20.6292 22.8364 20.6292 22.6772C20.6292 22.5181 20.5644 22.3618 20.4517 22.2492Z" fill="white"/>
<path d="M18.3364 22.2492C18.2238 22.1366 18.0682 22.0718 17.9084 22.0718C17.7491 22.0718 17.5929 22.1366 17.4804 22.2492C17.3678 22.3618 17.303 22.5181 17.303 22.6772C17.303 22.8364 17.3678 22.9927 17.4804 23.1052C17.593 23.2179 17.7492 23.2826 17.9084 23.2826C18.0682 23.2826 18.2238 23.2179 18.3364 23.1052C18.4496 22.9926 18.5138 22.8364 18.5138 22.6772C18.5138 22.5181 18.4496 22.3618 18.3364 22.2492Z" fill="white"/>
<path d="M23.3782 17.9205C23.3782 16.9313 22.9013 16.0515 22.1652 15.4988C22.9012 14.9461 23.3782 14.0663 23.3782 13.0771C23.3782 11.4079 22.0202 10.05 20.3511 10.05H10.6643C8.99515 10.05 7.63721 11.4079 7.63721 13.0771C7.63721 14.0663 8.11413 14.9461 8.85014 15.4988C8.1142 16.0515 7.63721 16.9313 7.63721 17.9205C7.63721 18.9097 8.11413 19.7894 8.85014 20.3422C8.1142 20.8949 7.63721 21.7747 7.63721 22.7639C7.63721 24.433 8.99515 25.791 10.6643 25.791H14.8946V27.4716C14.19 27.7215 13.6838 28.3944 13.6838 29.1837C13.6837 30.1852 14.4985 31 15.5 31C16.5015 31 17.3163 30.1852 17.3163 29.1837C17.3163 28.3945 16.8101 27.7215 16.1055 27.4716V25.791H20.3511C22.0203 25.791 23.3782 24.433 23.3782 22.7639C23.3782 21.7747 22.9013 20.8949 22.1653 20.3422C22.9012 19.7894 23.3782 18.9097 23.3782 17.9205ZM8.84796 13.0772C8.84796 12.0757 9.66274 11.2609 10.6642 11.2609H20.351C21.3525 11.2609 22.1673 12.0757 22.1673 13.0772C22.1673 14.0787 21.3525 14.8934 20.351 14.8934H10.6642C9.66274 14.8934 8.84796 14.0786 8.84796 13.0772ZM15.5 29.7892C15.1662 29.7892 14.8946 29.5176 14.8946 29.1838C14.8946 28.8499 15.1662 28.5784 15.5 28.5784C15.8338 28.5784 16.1054 28.85 16.1054 29.1838C16.1054 29.5176 15.8339 29.7892 15.5 29.7892ZM22.1673 22.7639C22.1673 23.7654 21.3525 24.5802 20.351 24.5802H10.6642C9.66274 24.5802 8.84796 23.7654 8.84796 22.7639C8.84796 21.7624 9.66274 20.9476 10.6642 20.9476H20.351C21.3525 20.9476 22.1673 21.7624 22.1673 22.7639ZM20.351 19.7368H10.6642C9.66274 19.7368 8.84796 18.922 8.84796 17.9205C8.84796 16.919 9.66274 16.1042 10.6642 16.1042H20.351C21.3525 16.1042 22.1673 16.919 22.1673 17.9205C22.1673 18.922 21.3525 19.7368 20.351 19.7368Z" fill="white"/>
<path d="M29.6993 9.37478C28.9219 8.24636 27.8602 7.3645 26.617 6.81104C25.0932 2.72588 21.1832 0 16.802 0C14.2527 0 11.796 0.926791 9.88465 2.60957C8.13703 4.14813 6.95576 6.21562 6.51849 8.4811C6.42452 8.47686 6.33073 8.47475 6.23731 8.47475C2.79885 8.47475 0.00146484 11.2721 0.00146484 14.7106C0.00146484 16.2069 0.539485 17.6539 1.51641 18.785C2.48304 19.9041 3.81604 20.6452 5.26995 20.8718C5.30156 20.8767 5.33292 20.8791 5.36392 20.8791C5.65715 20.8791 5.91478 20.6656 5.9614 20.3669C6.01292 20.0365 5.78678 19.727 5.45644 19.6754C2.9972 19.2921 1.21228 17.2042 1.21228 14.7107C1.21228 11.9398 3.46644 9.68562 6.23731 9.68562C6.4706 9.68562 6.70715 9.70215 6.9405 9.73485C7.1001 9.75713 7.26176 9.71499 7.39 9.61775C7.51836 9.52051 7.60264 9.37617 7.62426 9.21669C8.24329 4.6526 12.1889 1.21088 16.802 1.21088C20.7577 1.21088 24.2789 3.72297 25.5639 7.46186C25.6211 7.62824 25.7478 7.76144 25.911 7.82695C28.2663 8.77203 29.7882 11.0225 29.7882 13.5603C29.7882 16.4812 27.7148 19.0255 24.8581 19.6101C24.5305 19.6771 24.3193 19.9971 24.3864 20.3246C24.4534 20.6522 24.7732 20.8633 25.1009 20.7963C28.5186 20.097 30.9991 17.0538 30.9991 13.5603C30.9991 12.0563 30.5497 10.609 29.6993 9.37478Z" fill="white"/>
</g>
<defs>
<clipPath id="clip0_22_83">
<rect width="31" height="31" fill="white"/>
</clipPath>
</defs>
</svg>
