<svg width="30" height="30" viewBox="0 0 30 30" fill="none" xmlns="http://www.w3.org/2000/svg">
<path d="M23.4375 10.3125H22.5C22.5 10.6855 22.3518 11.0432 22.0881 11.3069C21.8244 11.5706 21.4667 11.7188 21.0938 11.7188V12.6563C21.7151 12.6555 22.3108 12.4084 22.7502 11.969C23.1896 11.5296 23.4368 10.9339 23.4375 10.3125Z" fill="white"/>
<path d="M20.1562 11.7188H19.2188V12.6563H20.1562V11.7188Z" fill="white"/>
<path d="M13.5938 2.8125C12.7238 2.81349 11.8898 3.15951 11.2747 3.77465C10.6595 4.38979 10.3135 5.22381 10.3125 6.09375H11.25C11.2507 5.47238 11.4979 4.87667 11.9373 4.43729C12.3767 3.99791 12.9724 3.75074 13.5938 3.75V2.8125Z" fill="white"/>
<path d="M26.714 22.6406C26.7173 22.5938 26.7187 22.5469 26.7187 22.5C26.718 21.8786 26.4708 21.2829 26.0314 20.8436C25.5921 20.4042 24.9964 20.157 24.375 20.1563C24.1908 20.1562 24.0073 20.1784 23.8284 20.2224C23.6006 19.8757 23.3088 19.5757 22.9687 19.3383V17.3438C22.9687 17.2194 22.9193 17.1002 22.8314 17.0123C22.7435 16.9244 22.6243 16.875 22.5 16.875H16.32C16.2499 16.679 16.1373 16.5009 15.99 16.3537C15.8428 16.2065 15.6648 16.0938 15.4687 16.0238V14.5313H21.0937C22.1306 14.5308 23.131 14.1485 23.9039 13.4573C24.6768 12.7662 25.1681 11.8146 25.284 10.7843C25.4 9.7539 25.1324 8.71693 24.5324 7.8713C23.9324 7.02567 23.042 6.43061 22.0312 6.19971C22.0312 6.16408 22.0312 6.12892 22.0312 6.09377C22.0302 5.22383 21.6842 4.38981 21.0691 3.77467C20.4539 3.15953 19.6199 2.81351 18.75 2.81252C18.3941 2.81222 18.0406 2.87066 17.7037 2.98549C17.0527 2.1232 16.1471 1.48735 15.1149 1.16782C14.0828 0.848298 12.9764 0.861258 11.952 1.20487C10.9276 1.54849 10.0372 2.20537 9.40649 3.08267C8.77582 3.95997 8.43684 5.01331 8.43748 6.09377V6.11955C7.36529 6.23863 6.37946 6.76392 5.68263 7.58744C4.98579 8.41096 4.63092 9.47014 4.69094 10.5472C4.75096 11.6244 5.22132 12.6375 6.00534 13.3785C6.78935 14.1195 7.82745 14.5321 8.90623 14.5313H14.5312V16.0238C14.3352 16.0938 14.1571 16.2065 14.0099 16.3537C13.8627 16.5009 13.75 16.679 13.68 16.875H7.49998C7.37566 16.875 7.25643 16.9244 7.16852 17.0123C7.08061 17.1002 7.03123 17.2194 7.03123 17.3438V18.8906C6.5417 18.7422 6.02419 18.7107 5.52027 18.7987C5.01636 18.8866 4.54011 19.0915 4.12979 19.397C3.71948 19.7025 3.38655 20.0999 3.15776 20.5574C2.92897 21.0149 2.81071 21.5197 2.81248 22.0313C2.81216 22.2838 2.84142 22.5355 2.89966 22.7813C2.21265 23.0856 1.65091 23.6166 1.30835 24.2854C0.965776 24.9542 0.863128 25.7203 1.01756 26.4556C1.17199 27.191 1.57414 27.8511 2.15679 28.3256C2.73945 28.8001 3.46731 29.0602 4.21873 29.0625H10.7812C11.5668 29.0584 12.3247 28.7725 12.9174 28.257C13.5101 27.7414 13.8981 27.0304 14.0111 26.253C14.124 25.4756 13.9543 24.6835 13.5328 24.0206C13.1112 23.3578 12.4659 22.8681 11.714 22.6406C11.7173 22.5938 11.7187 22.5469 11.7187 22.5C11.718 21.8786 11.4708 21.2829 11.0314 20.8436C10.5921 20.4042 9.99635 20.157 9.37498 20.1563C9.19079 20.1562 9.00727 20.1784 8.82841 20.2224C8.6006 19.8757 8.30884 19.5757 7.96873 19.3383V17.8125H13.68C13.7754 18.0865 13.9538 18.324 14.1903 18.4921C14.4269 18.6602 14.7098 18.7505 15 18.7505C15.2901 18.7505 15.5731 18.6602 15.8096 18.4921C16.0462 18.324 16.2245 18.0865 16.32 17.8125H22.0312V18.8906C21.5417 18.7422 21.0242 18.7107 20.5203 18.7987C20.0164 18.8866 19.5401 19.0915 19.1298 19.397C18.7195 19.7025 18.3866 20.0999 18.1578 20.5574C17.929 21.0149 17.8107 21.5197 17.8125 22.0313C17.8122 22.2838 17.8414 22.5355 17.8997 22.7813C17.2127 23.0856 16.6509 23.6166 16.3083 24.2854C15.9658 24.9542 15.8631 25.7203 16.0176 26.4556C16.172 27.191 16.5741 27.8511 17.1568 28.3256C17.7395 28.8001 18.4673 29.0602 19.2187 29.0625H25.7812C26.5668 29.0584 27.3247 28.7725 27.9174 28.257C28.5101 27.7414 28.8981 27.0304 29.0111 26.253C29.124 25.4756 28.9543 24.6835 28.5328 24.0206C28.1112 23.3578 27.4659 22.8681 26.714 22.6406ZM8.90623 13.5938C8.47533 13.5922 8.04895 13.5058 7.65144 13.3395C7.25393 13.1732 6.89307 12.9302 6.58946 12.6244C6.28586 12.3186 6.04546 11.9561 5.88198 11.5574C5.7185 11.1587 5.63516 10.7317 5.63669 10.3008C5.63823 9.8699 5.72463 9.44352 5.89095 9.04601C6.05727 8.6485 6.30026 8.28764 6.60604 7.98404C6.91182 7.68043 7.2744 7.44003 7.67309 7.27655C8.07178 7.11308 8.49876 7.02973 8.92966 7.03127C8.99537 7.0316 9.06042 7.01811 9.12057 6.99168C9.18073 6.96524 9.23466 6.92646 9.27886 6.87784C9.32306 6.82922 9.35655 6.77185 9.37714 6.70945C9.39774 6.64705 9.40499 6.58102 9.39841 6.51564C9.38482 6.37502 9.37732 6.23439 9.37732 6.09377C9.37741 5.18292 9.67249 4.2966 10.2184 3.56746C10.7643 2.83832 11.5316 2.30559 12.4056 2.04899C13.2796 1.7924 14.2131 1.82575 15.0665 2.14405C15.92 2.46235 16.6473 3.04848 17.1398 3.81471C17.2018 3.91072 17.2966 3.9808 17.4066 4.01179C17.5166 4.04278 17.6341 4.03253 17.737 3.98299C18.0527 3.8297 18.399 3.75004 18.75 3.75002C19.3714 3.75076 19.9671 3.99793 20.4064 4.43731C20.8458 4.87669 21.093 5.4724 21.0937 6.09377C21.0931 6.23184 21.08 6.36958 21.0548 6.50533C21.0435 6.56847 21.0453 6.63326 21.06 6.69569C21.0748 6.75811 21.1022 6.81685 21.1405 6.86826C21.1789 6.91967 21.2274 6.96266 21.2831 6.99457C21.3387 7.02648 21.4003 7.04663 21.464 7.05377C22.2942 7.15143 23.0558 7.56223 23.5933 8.20231C24.1309 8.8424 24.4039 9.66351 24.3567 10.498C24.3094 11.3326 23.9454 12.1176 23.3391 12.6929C22.7327 13.2682 21.9296 13.5904 21.0937 13.5938H15.4687V12.57C15.7815 12.4594 16.0451 12.2419 16.2129 11.9557C16.3808 11.6696 16.4421 11.3333 16.386 11.0064C16.3299 10.6794 16.16 10.3828 15.9064 10.169C15.6528 9.95522 15.3317 9.83794 15 9.83794C14.6682 9.83794 14.3472 9.95522 14.0936 10.169C13.8399 10.3828 13.6701 10.6794 13.614 11.0064C13.5579 11.3333 13.6192 11.6696 13.787 11.9557C13.9549 12.2419 14.2185 12.4594 14.5312 12.57V13.5938H8.90623ZM14.5312 11.25C14.5312 11.1573 14.5587 11.0667 14.6102 10.9896C14.6617 10.9125 14.7349 10.8524 14.8206 10.817C14.9062 10.7815 15.0005 10.7722 15.0914 10.7903C15.1824 10.8084 15.2659 10.853 15.3314 10.9186C15.397 10.9841 15.4416 11.0676 15.4597 11.1586C15.4778 11.2495 15.4685 11.3437 15.433 11.4294C15.3976 11.5151 15.3375 11.5883 15.2604 11.6398C15.1833 11.6913 15.0927 11.7188 15 11.7188C14.8757 11.7188 14.7564 11.6694 14.6685 11.5815C14.5806 11.4936 14.5312 11.3743 14.5312 11.25ZM7.96873 24.8438C7.96873 24.9365 7.94123 25.0271 7.88973 25.1042C7.83822 25.1813 7.76501 25.2414 7.67936 25.2768C7.59371 25.3123 7.49946 25.3216 7.40853 25.3035C7.3176 25.2854 7.23408 25.2408 7.16852 25.1752C7.10296 25.1097 7.05832 25.0261 7.04023 24.9352C7.02215 24.8443 7.03143 24.75 7.06691 24.6644C7.10239 24.5787 7.16247 24.5055 7.23955 24.454C7.31664 24.4025 7.40727 24.375 7.49998 24.375C7.6243 24.375 7.74353 24.4244 7.83143 24.5123C7.91934 24.6002 7.96873 24.7194 7.96873 24.8438ZM8.19373 20.9963C8.24723 21.1046 8.34047 21.188 8.454 21.2292C8.56753 21.2704 8.69259 21.2663 8.8031 21.2175C9.04593 21.1035 9.3166 21.0622 9.58238 21.0988C9.84816 21.1353 10.0977 21.2481 10.3007 21.4234C10.5038 21.5987 10.6517 21.8291 10.7265 22.0868C10.8014 22.3444 10.8001 22.6182 10.7226 22.875C10.7048 22.9393 10.701 23.0066 10.7113 23.0725C10.7216 23.1384 10.7458 23.2013 10.7824 23.2571C10.8189 23.3128 10.867 23.3602 10.9233 23.3959C10.9796 23.4316 11.0429 23.4549 11.1089 23.4642C11.6911 23.5527 12.2187 23.8571 12.5867 24.3169C12.9547 24.7768 13.1361 25.3583 13.0948 25.9458C13.0535 26.5332 12.7925 27.0837 12.3638 27.4875C11.9351 27.8913 11.3701 28.1189 10.7812 28.125H4.21873C3.65237 28.1228 3.10597 27.9156 2.68057 27.5417C2.25516 27.1679 1.97953 26.6526 1.90464 26.0912C1.82975 25.5298 1.96067 24.9603 2.27319 24.488C2.58571 24.0157 3.05869 23.6725 3.60466 23.5219C3.66836 23.5045 3.72768 23.4739 3.77872 23.432C3.82976 23.3902 3.87138 23.338 3.90085 23.2789C3.93033 23.2198 3.94699 23.1552 3.94974 23.0892C3.9525 23.0232 3.94129 22.9574 3.91685 22.8961C3.74568 22.4647 3.70648 21.9921 3.80419 21.5384C3.90191 21.0846 4.13216 20.6701 4.46574 20.3474C4.79932 20.0246 5.22122 19.8082 5.67795 19.7255C6.13468 19.6429 6.60568 19.6977 7.03123 19.883V23.5238C6.71847 23.6343 6.45487 23.8519 6.28702 24.1381C6.11917 24.4242 6.05788 24.7604 6.11398 25.0874C6.17007 25.4143 6.33995 25.7109 6.59357 25.9248C6.8472 26.1386 7.16825 26.2558 7.49998 26.2558C7.8317 26.2558 8.15275 26.1386 8.40638 25.9248C8.66001 25.7109 8.82988 25.4143 8.88597 25.0874C8.94207 24.7604 8.88078 24.4242 8.71293 24.1381C8.54508 23.8519 8.28148 23.6343 7.96873 23.5238V20.6353C8.05435 20.7487 8.12965 20.8695 8.19373 20.9963ZM15 17.8125C14.9073 17.8125 14.8166 17.785 14.7396 17.7335C14.6625 17.682 14.6024 17.6088 14.5669 17.5232C14.5314 17.4375 14.5221 17.3432 14.5402 17.2523C14.5583 17.1614 14.603 17.0779 14.6685 17.0123C14.7341 16.9468 14.8176 16.9021 14.9085 16.884C14.9995 16.8659 15.0937 16.8752 15.1794 16.9107C15.265 16.9462 15.3382 17.0063 15.3897 17.0833C15.4412 17.1604 15.4687 17.2511 15.4687 17.3438C15.4687 17.4681 15.4193 17.5873 15.3314 17.6752C15.2435 17.7631 15.1243 17.8125 15 17.8125ZM22.9687 24.8438C22.9687 24.9365 22.9412 25.0271 22.8897 25.1042C22.8382 25.1813 22.765 25.2414 22.6794 25.2768C22.5937 25.3123 22.4995 25.3216 22.4085 25.3035C22.3176 25.2854 22.2341 25.2408 22.1685 25.1752C22.103 25.1097 22.0583 25.0261 22.0402 24.9352C22.0221 24.8443 22.0314 24.75 22.0669 24.6644C22.1024 24.5787 22.1625 24.5055 22.2396 24.454C22.3166 24.4025 22.4073 24.375 22.5 24.375C22.6243 24.375 22.7435 24.4244 22.8314 24.5123C22.9193 24.6002 22.9687 24.7194 22.9687 24.8438ZM25.7812 28.125H19.2187C18.6524 28.1228 18.106 27.9156 17.6806 27.5417C17.2552 27.1679 16.9795 26.6526 16.9046 26.0912C16.8298 25.5298 16.9607 24.9603 17.2732 24.488C17.5857 24.0157 18.0587 23.6725 18.6047 23.5219C18.6684 23.5045 18.7277 23.4739 18.7787 23.432C18.8298 23.3902 18.8714 23.338 18.9009 23.2789C18.9303 23.2198 18.947 23.1552 18.9497 23.0892C18.9525 23.0232 18.9413 22.9574 18.9169 22.8961C18.7457 22.4647 18.7065 21.9921 18.8042 21.5384C18.9019 21.0846 19.1322 20.6701 19.4657 20.3474C19.7993 20.0246 20.2212 19.8082 20.678 19.7255C21.1347 19.6429 21.6057 19.6977 22.0312 19.883V23.5238C21.7185 23.6343 21.4549 23.8519 21.287 24.1381C21.1192 24.4242 21.0579 24.7604 21.114 25.0874C21.1701 25.4143 21.3399 25.7109 21.5936 25.9248C21.8472 26.1386 22.1682 26.2558 22.5 26.2558C22.8317 26.2558 23.1528 26.1386 23.4064 25.9248C23.66 25.7109 23.8299 25.4143 23.886 25.0874C23.9421 24.7604 23.8808 24.4242 23.7129 24.1381C23.5451 23.8519 23.2815 23.6343 22.9687 23.5238V20.6353C23.0543 20.7487 23.1297 20.8695 23.1937 20.9963C23.2472 21.1046 23.3405 21.188 23.454 21.2292C23.5675 21.2704 23.6926 21.2663 23.8031 21.2175C24.0459 21.1035 24.3166 21.0622 24.5824 21.0988C24.8482 21.1353 25.0977 21.2481 25.3007 21.4234C25.5038 21.5987 25.6517 21.8291 25.7265 22.0868C25.8014 22.3444 25.8001 22.6182 25.7226 22.875C25.7048 22.9393 25.701 23.0066 25.7113 23.0725C25.7216 23.1384 25.7458 23.2013 25.7824 23.2571C25.8189 23.3128 25.867 23.3602 25.9233 23.3959C25.9796 23.4316 26.0429 23.4549 26.1089 23.4642C26.6911 23.5527 27.2188 23.8571 27.5867 24.3169C27.9547 24.7768 28.1361 25.3583 28.0948 25.9458C28.0535 26.5332 27.7925 27.0837 27.3638 27.4875C26.9351 27.8913 26.3701 28.1189 25.7812 28.125Z" fill="white"/>
</svg>
