<svg width="20" height="22" viewBox="0 0 20 22" fill="none" xmlns="http://www.w3.org/2000/svg">
<path d="M13.3167 10.201C14.7244 9.17434 15.6411 7.51283 15.6411 5.64102C15.6411 2.53056 13.1105 0 10.0001 0C6.88959 0 4.35904 2.53056 4.35904 5.64102C4.35904 7.51283 5.27569 9.17434 6.68343 10.201C3.18405 11.5401 0.692383 14.933 0.692383 18.8974C0.692383 20.6082 2.08418 22 3.79494 22H16.2052C17.9159 22 19.3077 20.6082 19.3077 18.8974C19.3077 14.933 16.8161 11.5401 13.3167 10.201ZM6.05136 5.64102C6.05136 3.46371 7.82275 1.69232 10.0001 1.69232C12.1774 1.69232 13.9488 3.46371 13.9488 5.64102C13.9488 7.81834 12.1774 9.58977 10.0001 9.58977C7.82275 9.58977 6.05136 7.81834 6.05136 5.64102ZM16.2052 20.3077H3.79494C3.01734 20.3077 2.38471 19.675 2.38471 18.8974C2.38471 14.6982 5.8009 11.282 10.0001 11.282C14.1993 11.282 17.6155 14.6982 17.6155 18.8974C17.6155 19.675 16.9828 20.3077 16.2052 20.3077Z" fill="#3E3F50"/>
</svg>
